G04 (created by PCBNEW-RS274X (2011-05-25)-stable) date Wed 29 Aug 2012 05:18:07 PM CDT*
G01*
G70*
G90*
%MOIN*%
G04 Gerber Fmt 3.4, Leading zero omitted, Abs format*
%FSLAX34Y34*%
G04 APERTURE LIST*
%ADD10C,0.006000*%
%ADD11R,0.055000X0.055000*%
%ADD12C,0.055000*%
%ADD13C,0.066000*%
%ADD14R,0.056000X0.056000*%
%ADD15C,0.056000*%
%ADD16R,0.070000X0.200000*%
%ADD17R,0.090000X0.062000*%
%ADD18O,0.090000X0.062000*%
%ADD19C,0.060000*%
%ADD20C,0.035000*%
%ADD21C,0.019700*%
%ADD22C,0.013000*%
G04 APERTURE END LIST*
G54D10*
G54D11*
X00700Y-18800D03*
G54D12*
X00700Y-17800D03*
X00700Y-16800D03*
G54D11*
X03000Y-17000D03*
G54D12*
X02000Y-17000D03*
G54D13*
X09000Y-19000D03*
X09000Y-18000D03*
X09000Y-16500D03*
X09000Y-15500D03*
X09000Y-14000D03*
X09000Y-13000D03*
X09000Y-11500D03*
X09000Y-10500D03*
X09000Y-09000D03*
X09000Y-08000D03*
X09000Y-06500D03*
X09000Y-05500D03*
X09000Y-04000D03*
X09000Y-03000D03*
X09000Y-01500D03*
X09000Y-00500D03*
G54D14*
X02250Y-06250D03*
G54D15*
X02250Y-09250D03*
G54D10*
G36*
X05835Y-08239D02*
X05439Y-08635D01*
X05043Y-08239D01*
X05439Y-07843D01*
X05835Y-08239D01*
X05835Y-08239D01*
G37*
G54D15*
X07561Y-10361D03*
G54D14*
X02250Y-10500D03*
G54D15*
X02250Y-13500D03*
G54D16*
X04600Y-01000D03*
X03500Y-01000D03*
X02400Y-01000D03*
X01300Y-01000D03*
X05700Y-01000D03*
G54D17*
X00750Y-04750D03*
G54D18*
X00750Y-05750D03*
X00750Y-06750D03*
X00750Y-07750D03*
X00750Y-08750D03*
X00750Y-09750D03*
X00750Y-10750D03*
X00750Y-11750D03*
X00750Y-12750D03*
X00750Y-13750D03*
X03750Y-13750D03*
X03750Y-12750D03*
X03750Y-11750D03*
X03750Y-10750D03*
X03750Y-09750D03*
X03750Y-08750D03*
X03750Y-07750D03*
X03750Y-06750D03*
X03750Y-05750D03*
X03750Y-04750D03*
G54D19*
X07000Y-02750D03*
X03000Y-02750D03*
X07414Y-03586D03*
X04586Y-06414D03*
X07647Y-06888D03*
X05353Y-03612D03*
X07664Y-04836D03*
X04836Y-07664D03*
X07347Y-08338D03*
X05053Y-05062D03*
X07614Y-11814D03*
X04786Y-08986D03*
X07614Y-13314D03*
X04786Y-10486D03*
X06700Y-18100D03*
X06700Y-14100D03*
X05600Y-16900D03*
X05600Y-12900D03*
X04750Y-15750D03*
X00750Y-15750D03*
X00500Y-03750D03*
X04500Y-03750D03*
G54D12*
X05481Y-18900D03*
X04300Y-18900D03*
X03119Y-18900D03*
X01938Y-18900D03*
X06662Y-18900D03*
G54D20*
X05000Y-04300D03*
X03300Y-04000D03*
X02200Y-04500D03*
X00700Y-02700D03*
X02400Y-16300D03*
G54D21*
X02100Y-15000D02*
X02100Y-15100D01*
G54D22*
X02700Y-14400D02*
X02100Y-15000D01*
X02700Y-11826D02*
X02700Y-14400D01*
X00750Y-09876D02*
X02700Y-11826D01*
X00750Y-09750D02*
X00750Y-09876D01*
G54D21*
X01300Y-16200D02*
X00700Y-16800D01*
X01300Y-15900D02*
X01300Y-16200D01*
X02100Y-15100D02*
X01300Y-15900D01*
X02250Y-10150D02*
X02250Y-10500D01*
X01500Y-09400D02*
X02250Y-10150D01*
X01500Y-05000D02*
X01500Y-09400D01*
X01250Y-04750D02*
X01500Y-05000D01*
X00750Y-04750D02*
X01250Y-04750D01*
X02250Y-06250D02*
X02250Y-05150D01*
X02250Y-05150D02*
X00850Y-03750D01*
X00850Y-03750D02*
X00500Y-03750D01*
X00500Y-03750D02*
X00650Y-03750D01*
X00650Y-03750D02*
X01650Y-02750D01*
X01650Y-02750D02*
X03000Y-02750D01*
X03000Y-02750D02*
X03150Y-02750D01*
X03150Y-02750D02*
X03700Y-03300D01*
X03700Y-03300D02*
X03700Y-03700D01*
X03700Y-03700D02*
X04500Y-04500D01*
X04500Y-04500D02*
X04500Y-05000D01*
X04500Y-05000D02*
X03750Y-05750D01*
X09000Y-18000D02*
X08700Y-18000D01*
X02000Y-17700D02*
X02000Y-17000D01*
X02100Y-17800D02*
X02000Y-17700D01*
X05800Y-17800D02*
X02100Y-17800D01*
X06300Y-17300D02*
X05800Y-17800D01*
X08000Y-17300D02*
X06300Y-17300D01*
X08700Y-18000D02*
X08000Y-17300D01*
X02000Y-17000D02*
X01500Y-17000D01*
X01500Y-17000D02*
X00700Y-17800D01*
X02250Y-13500D02*
X01000Y-13500D01*
X01000Y-13500D02*
X00750Y-13750D01*
X09000Y-15500D02*
X08900Y-15500D01*
X08900Y-15500D02*
X08300Y-14900D01*
X08300Y-14900D02*
X08300Y-13700D01*
X08300Y-13700D02*
X09000Y-13000D01*
X09000Y-10500D02*
X09000Y-09900D01*
X09000Y-09900D02*
X08100Y-09000D01*
X08100Y-09000D02*
X08100Y-08500D01*
X08100Y-08500D02*
X08600Y-08000D01*
X08600Y-08000D02*
X09000Y-08000D01*
X09000Y-05500D02*
X08750Y-05500D01*
X08250Y-03750D02*
X09000Y-03000D01*
X08250Y-05000D02*
X08250Y-03750D01*
X08750Y-05500D02*
X08250Y-05000D01*
X05700Y-01000D02*
X06000Y-01000D01*
X06500Y-00500D02*
X09000Y-00500D01*
X06000Y-01000D02*
X06500Y-00500D01*
X07647Y-06888D02*
X08612Y-06888D01*
X08612Y-06888D02*
X09000Y-06500D01*
X07000Y-02750D02*
X07000Y-02000D01*
X07500Y-01500D02*
X09000Y-01500D01*
X07000Y-02000D02*
X07500Y-01500D01*
X07347Y-08338D02*
X07347Y-08847D01*
X08200Y-10700D02*
X09000Y-11500D01*
X08200Y-09700D02*
X08200Y-10700D01*
X07347Y-08847D02*
X08200Y-09700D01*
X05500Y-04300D02*
X06400Y-04300D01*
X02800Y-04500D02*
X03300Y-04000D01*
X05300Y-04300D02*
X05500Y-04300D01*
X05000Y-04300D02*
X05300Y-04300D01*
X02200Y-04500D02*
X02800Y-04500D01*
X06700Y-11800D02*
X05600Y-12900D01*
X06700Y-04600D02*
X06700Y-11800D01*
X06400Y-04300D02*
X06700Y-04600D01*
X06700Y-14100D02*
X05300Y-14100D01*
X03950Y-12750D02*
X03750Y-12750D01*
X05300Y-14100D02*
X03950Y-12750D01*
X07614Y-13314D02*
X07614Y-15114D01*
X07614Y-15114D02*
X09000Y-16500D01*
X05053Y-05062D02*
X05962Y-05062D01*
X05962Y-05062D02*
X06000Y-05100D01*
X03750Y-09750D02*
X05150Y-09750D01*
X06300Y-05400D02*
X06000Y-05100D01*
X06000Y-05100D02*
X05962Y-05062D01*
X06300Y-08600D02*
X06300Y-05400D01*
X05150Y-09750D02*
X06300Y-08600D01*
X04836Y-07664D02*
X03750Y-08750D01*
X03500Y-02200D02*
X02300Y-02200D01*
X02300Y-02200D02*
X02100Y-02400D01*
X02100Y-02400D02*
X01000Y-02400D01*
X01000Y-02400D02*
X00700Y-02700D01*
X03500Y-01000D02*
X03500Y-02200D01*
X04500Y-03750D02*
X04500Y-01100D01*
X04500Y-01100D02*
X04600Y-01000D01*
X03000Y-15700D02*
X03000Y-15800D01*
X03000Y-15800D02*
X02500Y-16300D01*
X02500Y-16300D02*
X02400Y-16300D01*
X03750Y-04750D02*
X03450Y-04750D01*
X03000Y-05200D02*
X03000Y-15700D01*
X03450Y-04750D02*
X03000Y-05200D01*
X00700Y-18800D02*
X01000Y-18800D01*
X03600Y-18200D02*
X04300Y-18900D01*
X01600Y-18200D02*
X03600Y-18200D01*
X01000Y-18800D02*
X01600Y-18200D01*
M02*
