G04 (created by PCBNEW-RS274X (2011-05-25)-stable) date Sun 14 Oct 2012 07:15:22 PM CDT*
G01*
G70*
G90*
%MOIN*%
G04 Gerber Fmt 3.4, Leading zero omitted, Abs format*
%FSLAX34Y34*%
G04 APERTURE LIST*
%ADD10C,0.006000*%
%ADD11C,0.012000*%
%ADD12C,0.015000*%
%ADD13C,0.012500*%
%ADD14C,0.008000*%
%ADD15C,0.003000*%
%ADD16C,0.010000*%
%ADD17C,0.010600*%
%ADD18C,0.010700*%
%ADD19C,0.011300*%
%ADD20C,0.007500*%
%ADD21C,0.003500*%
G04 APERTURE END LIST*
G54D10*
G54D11*
X01672Y-15919D02*
X02129Y-15919D01*
X02872Y-15919D02*
X03329Y-15919D01*
X03100Y-16224D02*
X03100Y-15614D01*
G54D12*
X00100Y-16100D02*
X00500Y-16100D01*
X00300Y-16300D02*
X00100Y-16100D01*
X00500Y-16100D02*
X00300Y-16300D01*
X00300Y-15400D02*
X00400Y-15300D01*
X00300Y-15700D02*
X00300Y-15400D01*
X00300Y-16300D02*
X00300Y-15700D01*
X00400Y-16200D02*
X00300Y-16300D01*
X00300Y-16300D02*
X00400Y-16200D01*
X00100Y-16100D02*
X00300Y-16300D01*
X00300Y-16300D02*
X00100Y-16100D01*
X00300Y-15700D02*
X00300Y-16300D01*
G54D11*
X01200Y-19300D02*
X00200Y-19300D01*
X00200Y-19300D02*
X00200Y-16300D01*
X00200Y-16300D02*
X01200Y-16300D01*
X01200Y-16300D02*
X01200Y-19300D01*
X00200Y-18300D02*
X01200Y-18300D01*
X03500Y-16500D02*
X03500Y-17500D01*
X03500Y-17500D02*
X01500Y-17500D01*
X01500Y-17500D02*
X01500Y-16500D01*
X01500Y-16500D02*
X03500Y-16500D01*
X00150Y04750D02*
X06900Y04750D01*
X07150Y00500D02*
X-00100Y00500D01*
X07400Y00500D02*
X07150Y00500D01*
X07400Y01750D02*
X-00350Y01750D01*
X09650Y01750D02*
X07400Y01750D01*
X-02600Y02250D02*
X09650Y02250D01*
X06900Y02250D02*
X06900Y04750D01*
X09650Y01750D02*
X09650Y02250D01*
X07400Y00500D02*
X07400Y01750D01*
X06400Y00000D02*
X07150Y00000D01*
X07150Y00000D02*
X07150Y00500D01*
X00150Y02250D02*
X00150Y04750D01*
X-00350Y01750D02*
X-02600Y01750D01*
X-02600Y01750D02*
X-02600Y02250D01*
X-00100Y00500D02*
X-00350Y00500D01*
X-00350Y00500D02*
X-00350Y01750D01*
X00650Y00000D02*
X-00100Y00000D01*
X-00100Y00000D02*
X-00100Y00500D01*
G54D12*
X02750Y-03750D02*
X02750Y-04250D01*
X02750Y-04250D02*
X01750Y-04250D01*
X01750Y-04250D02*
X01750Y-03750D01*
X03250Y-03750D02*
X03250Y-14750D01*
X03250Y-14750D02*
X01250Y-14750D01*
X01250Y-14750D02*
X01250Y-03750D01*
X01250Y-03750D02*
X03250Y-03750D01*
G54D11*
X07439Y-05489D02*
X07156Y-05206D01*
X07156Y-05206D02*
X06874Y-05489D01*
X06874Y-05489D02*
X04611Y-03226D01*
X04611Y-03226D02*
X05176Y-02661D01*
X05176Y-02661D02*
X07439Y-04924D01*
X07439Y-04924D02*
X07156Y-05206D01*
X07015Y-05348D02*
X06732Y-05348D01*
X04611Y-02661D02*
X04894Y-02944D01*
X07614Y-07114D02*
X07331Y-06831D01*
X07331Y-06831D02*
X07049Y-07114D01*
X07049Y-07114D02*
X04786Y-04851D01*
X04786Y-04851D02*
X05351Y-04286D01*
X05351Y-04286D02*
X07614Y-06549D01*
X07614Y-06549D02*
X07331Y-06831D01*
X07190Y-06973D02*
X06907Y-06973D01*
X04786Y-04286D02*
X05069Y-04569D01*
X07414Y-08264D02*
X07131Y-07981D01*
X07131Y-07981D02*
X06849Y-08264D01*
X06849Y-08264D02*
X04586Y-06001D01*
X04586Y-06001D02*
X05151Y-05436D01*
X05151Y-05436D02*
X07414Y-07699D01*
X07414Y-07699D02*
X07131Y-07981D01*
X06990Y-08123D02*
X06707Y-08123D01*
X04586Y-05436D02*
X04869Y-05719D01*
X07614Y-10039D02*
X07331Y-09756D01*
X07331Y-09756D02*
X07049Y-10039D01*
X07049Y-10039D02*
X04786Y-07776D01*
X04786Y-07776D02*
X05351Y-07211D01*
X05351Y-07211D02*
X07614Y-09474D01*
X07614Y-09474D02*
X07331Y-09756D01*
X07190Y-09898D02*
X06907Y-09898D01*
X04786Y-07211D02*
X05069Y-07494D01*
X07364Y-13014D02*
X07081Y-12731D01*
X07081Y-12731D02*
X06799Y-13014D01*
X06799Y-13014D02*
X04536Y-10751D01*
X04536Y-10751D02*
X05101Y-10186D01*
X05101Y-10186D02*
X07364Y-12449D01*
X07364Y-12449D02*
X07081Y-12731D01*
X06940Y-12873D02*
X06657Y-12873D01*
X04536Y-10186D02*
X04819Y-10469D01*
X07589Y-14714D02*
X07306Y-14431D01*
X07306Y-14431D02*
X07024Y-14714D01*
X07024Y-14714D02*
X04761Y-12451D01*
X04761Y-12451D02*
X05326Y-11886D01*
X05326Y-11886D02*
X07589Y-14149D01*
X07589Y-14149D02*
X07306Y-14431D01*
X07165Y-14573D02*
X06882Y-14573D01*
X04761Y-11886D02*
X05044Y-12169D01*
X07589Y-16139D02*
X07306Y-15856D01*
X07306Y-15856D02*
X07024Y-16139D01*
X07024Y-16139D02*
X04761Y-13876D01*
X04761Y-13876D02*
X05326Y-13311D01*
X05326Y-13311D02*
X07589Y-15574D01*
X07589Y-15574D02*
X07306Y-15856D01*
X07165Y-15998D02*
X06882Y-15998D01*
X04761Y-13311D02*
X05044Y-13594D01*
X07564Y-17589D02*
X07281Y-17306D01*
X07281Y-17306D02*
X06999Y-17589D01*
X06999Y-17589D02*
X04736Y-15326D01*
X04736Y-15326D02*
X05301Y-14761D01*
X05301Y-14761D02*
X07564Y-17024D01*
X07564Y-17024D02*
X07281Y-17306D01*
X07140Y-17448D02*
X06857Y-17448D01*
X04736Y-14761D02*
X05019Y-15044D01*
G54D13*
X07236Y-11436D02*
X07589Y-11789D01*
X05114Y-09314D02*
X04761Y-08961D01*
X05114Y-09314D02*
X05326Y-09526D01*
G54D11*
X05326Y-09526D02*
X05044Y-09809D01*
X05044Y-09809D02*
X06741Y-11506D01*
X06741Y-11506D02*
X07024Y-11224D01*
X07024Y-11224D02*
X07236Y-11436D01*
X07024Y-11224D02*
X07306Y-10941D01*
X07306Y-10941D02*
X05609Y-09244D01*
X05609Y-09244D02*
X05326Y-09526D01*
X05185Y-09951D02*
X05751Y-09385D01*
X05821Y-09456D02*
X05256Y-10021D01*
G54D12*
X01850Y-19700D02*
X01850Y-17550D01*
X06950Y-19700D02*
X06950Y-17550D01*
G54D14*
X03318Y-19224D02*
X03377Y-19316D01*
X03443Y-19403D01*
X03517Y-19483D01*
X03597Y-19557D01*
X03684Y-19623D01*
X03776Y-19682D01*
X03872Y-19732D01*
X03973Y-19774D01*
X04077Y-19807D01*
X04183Y-19831D01*
X04292Y-19845D01*
X04400Y-19850D01*
X04508Y-19845D01*
X04617Y-19831D01*
X04723Y-19807D01*
X04827Y-19774D01*
X04928Y-19732D01*
X05025Y-19682D01*
X05116Y-19623D01*
X05203Y-19557D01*
X05283Y-19483D01*
X05357Y-19403D01*
X05423Y-19316D01*
X05482Y-19224D01*
X05532Y-19128D01*
X05574Y-19027D01*
X05607Y-18923D01*
X05631Y-18817D01*
X05645Y-18708D01*
X05650Y-18600D01*
X05650Y-18600D02*
X05645Y-18492D01*
X05631Y-18383D01*
X05607Y-18277D01*
X05574Y-18173D01*
X05532Y-18072D01*
X05482Y-17976D01*
X05423Y-17884D01*
X05357Y-17797D01*
X05283Y-17717D01*
X05203Y-17643D01*
X05116Y-17577D01*
X05025Y-17518D01*
X04928Y-17468D01*
X04827Y-17426D01*
X04723Y-17393D01*
X04617Y-17369D01*
X04508Y-17355D01*
X04400Y-17350D01*
X04292Y-17355D01*
X04183Y-17369D01*
X04077Y-17393D01*
X03973Y-17426D01*
X03872Y-17468D01*
X03776Y-17518D01*
X03684Y-17577D01*
X03597Y-17643D01*
X03517Y-17717D01*
X03443Y-17797D01*
X03377Y-17884D01*
X03318Y-17976D01*
X03581Y-19173D02*
X03634Y-19242D01*
X03693Y-19307D01*
X03758Y-19366D01*
X03827Y-19419D01*
X03901Y-19466D01*
X03978Y-19506D01*
X04058Y-19539D01*
X04142Y-19565D01*
X04227Y-19584D01*
X04313Y-19596D01*
X04400Y-19600D01*
X04487Y-19596D01*
X04573Y-19584D01*
X04658Y-19565D01*
X04742Y-19539D01*
X04822Y-19506D01*
X04900Y-19466D01*
X04973Y-19419D01*
X05042Y-19366D01*
X05107Y-19307D01*
X05166Y-19242D01*
X05219Y-19173D01*
X05266Y-19099D01*
X05306Y-19022D01*
X05339Y-18942D01*
X05365Y-18858D01*
X05384Y-18773D01*
X05396Y-18687D01*
X05400Y-18600D01*
X05400Y-18600D02*
X05396Y-18513D01*
X05384Y-18427D01*
X05365Y-18342D01*
X05339Y-18258D01*
X05306Y-18178D01*
X05266Y-18101D01*
X05219Y-18027D01*
X05166Y-17958D01*
X05107Y-17893D01*
X05042Y-17834D01*
X04973Y-17781D01*
X04900Y-17734D01*
X04822Y-17694D01*
X04742Y-17661D01*
X04658Y-17635D01*
X04573Y-17616D01*
X04487Y-17604D01*
X04400Y-17600D01*
X04313Y-17604D01*
X04227Y-17616D01*
X04142Y-17635D01*
X04058Y-17661D01*
X03978Y-17694D01*
X03901Y-17734D01*
X03827Y-17781D01*
X03758Y-17834D01*
X03693Y-17893D01*
X03634Y-17958D01*
X03581Y-18027D01*
X03300Y-18000D02*
X03248Y-18003D01*
X03196Y-18010D01*
X03145Y-18021D01*
X03095Y-18037D01*
X03047Y-18057D01*
X03000Y-18081D01*
X02956Y-18109D01*
X02915Y-18141D01*
X02876Y-18176D01*
X02841Y-18215D01*
X02809Y-18256D01*
X02781Y-18300D01*
X02757Y-18347D01*
X02737Y-18395D01*
X02721Y-18445D01*
X02710Y-18496D01*
X02703Y-18548D01*
X02700Y-18600D01*
X02703Y-18652D01*
X02710Y-18704D01*
X02721Y-18755D01*
X02737Y-18805D01*
X02757Y-18853D01*
X02781Y-18899D01*
X02809Y-18944D01*
X02841Y-18985D01*
X02876Y-19024D01*
X02915Y-19059D01*
X02956Y-19091D01*
X03001Y-19119D01*
X03047Y-19143D01*
X03095Y-19163D01*
X03145Y-19179D01*
X03196Y-19190D01*
X03248Y-19197D01*
X03300Y-19200D01*
X04400Y-19100D02*
X03300Y-19200D01*
X04400Y-18100D02*
X03300Y-18000D01*
X04400Y-19100D02*
X04443Y-19098D01*
X04486Y-19092D01*
X04529Y-19082D01*
X04571Y-19069D01*
X04611Y-19053D01*
X04650Y-19033D01*
X04686Y-19009D01*
X04721Y-18983D01*
X04753Y-18953D01*
X04783Y-18921D01*
X04809Y-18886D01*
X04833Y-18849D01*
X04853Y-18811D01*
X04869Y-18771D01*
X04882Y-18729D01*
X04892Y-18686D01*
X04898Y-18643D01*
X04900Y-18600D01*
X04898Y-18557D01*
X04892Y-18514D01*
X04882Y-18471D01*
X04869Y-18429D01*
X04853Y-18389D01*
X04833Y-18351D01*
X04809Y-18314D01*
X04783Y-18279D01*
X04753Y-18247D01*
X04721Y-18217D01*
X04686Y-18191D01*
X04650Y-18167D01*
X04611Y-18147D01*
X04571Y-18131D01*
X04529Y-18118D01*
X04486Y-18108D01*
X04443Y-18102D01*
X04400Y-18100D01*
X06950Y-17500D02*
X01850Y-17500D01*
X01850Y-19700D02*
X06950Y-19700D01*
X09750Y00120D02*
X08250Y00120D01*
G54D15*
X09707Y-00900D02*
X09693Y-01037D01*
X09653Y-01169D01*
X09588Y-01291D01*
X09501Y-01398D01*
X09395Y-01486D01*
X09273Y-01551D01*
X09142Y-01592D01*
X09004Y-01606D01*
X08868Y-01594D01*
X08736Y-01555D01*
X08613Y-01491D01*
X08506Y-01405D01*
X08417Y-01299D01*
X08351Y-01178D01*
X08309Y-01046D01*
X08294Y-00909D01*
X08305Y-00773D01*
X08343Y-00640D01*
X08406Y-00518D01*
X08492Y-00409D01*
X08597Y-00320D01*
X08717Y-00253D01*
X08849Y-00210D01*
X08986Y-00194D01*
X09122Y-00204D01*
X09255Y-00241D01*
X09378Y-00304D01*
X09487Y-00389D01*
X09577Y-00493D01*
X09645Y-00613D01*
X09689Y-00744D01*
X09706Y-00881D01*
X09707Y-00900D01*
G54D16*
X08250Y00099D02*
X08166Y00030D01*
X08088Y-00046D01*
X08017Y-00129D01*
X07953Y-00218D01*
X07898Y-00312D01*
X07851Y-00410D01*
X07812Y-00512D01*
X07783Y-00617D01*
X07763Y-00724D01*
X07752Y-00833D01*
X07751Y-00941D01*
X07760Y-01050D01*
X07777Y-01157D01*
X07804Y-01263D01*
X07841Y-01366D01*
X07886Y-01465D01*
X07939Y-01560D01*
X08001Y-01650D01*
X08070Y-01734D01*
X08146Y-01812D01*
X08229Y-01883D01*
X08318Y-01947D01*
X08412Y-02002D01*
X08510Y-02049D01*
X08612Y-02088D01*
X08717Y-02117D01*
X08824Y-02137D01*
X08933Y-02148D01*
X09041Y-02149D01*
X09150Y-02140D01*
X09257Y-02123D01*
X09363Y-02096D01*
X09466Y-02059D01*
X09565Y-02014D01*
X09660Y-01961D01*
X09750Y-01899D01*
X09834Y-01830D01*
X09912Y-01754D01*
X09983Y-01671D01*
X10047Y-01582D01*
X10102Y-01488D01*
X10149Y-01390D01*
X10188Y-01288D01*
X10217Y-01183D01*
X10237Y-01076D01*
X10248Y-00967D01*
X10249Y-00859D01*
X10240Y-00750D01*
X10223Y-00643D01*
X10196Y-00537D01*
X10159Y-00434D01*
X10114Y-00335D01*
X10061Y-00240D01*
X09999Y-00150D01*
X09930Y-00066D01*
X09854Y00012D01*
X09771Y00083D01*
X09750Y00099D01*
G54D10*
X08550Y-00900D02*
X08552Y-00939D01*
X08557Y-00978D01*
X08566Y-01016D01*
X08578Y-01053D01*
X08593Y-01090D01*
X08611Y-01124D01*
X08632Y-01158D01*
X08656Y-01189D01*
X08682Y-01218D01*
X08711Y-01244D01*
X08742Y-01268D01*
X08776Y-01289D01*
X08810Y-01307D01*
X08847Y-01322D01*
X08884Y-01334D01*
X08922Y-01343D01*
X08961Y-01348D01*
X09000Y-01350D01*
X09450Y-00900D02*
X09448Y-00861D01*
X09443Y-00822D01*
X09434Y-00784D01*
X09422Y-00747D01*
X09407Y-00710D01*
X09389Y-00676D01*
X09368Y-00642D01*
X09344Y-00611D01*
X09318Y-00582D01*
X09289Y-00556D01*
X09258Y-00532D01*
X09225Y-00511D01*
X09190Y-00493D01*
X09153Y-00478D01*
X09116Y-00466D01*
X09078Y-00457D01*
X09039Y-00452D01*
X09000Y-00450D01*
X08350Y-00900D02*
X08353Y-00956D01*
X08360Y-01012D01*
X08373Y-01068D01*
X08390Y-01122D01*
X08411Y-01174D01*
X08438Y-01224D01*
X08468Y-01272D01*
X08503Y-01317D01*
X08541Y-01359D01*
X08583Y-01397D01*
X08628Y-01432D01*
X08676Y-01462D01*
X08726Y-01489D01*
X08778Y-01510D01*
X08832Y-01527D01*
X08888Y-01540D01*
X08944Y-01547D01*
X09000Y-01550D01*
X09650Y-00900D02*
X09647Y-00844D01*
X09640Y-00788D01*
X09627Y-00732D01*
X09610Y-00678D01*
X09589Y-00626D01*
X09562Y-00576D01*
X09532Y-00528D01*
X09497Y-00483D01*
X09459Y-00441D01*
X09417Y-00403D01*
X09372Y-00368D01*
X09325Y-00338D01*
X09274Y-00311D01*
X09222Y-00290D01*
X09168Y-00273D01*
X09112Y-00260D01*
X09056Y-00253D01*
X09000Y-00250D01*
X08150Y-00900D02*
X08154Y-00974D01*
X08163Y-01047D01*
X08179Y-01119D01*
X08202Y-01190D01*
X08230Y-01259D01*
X08264Y-01324D01*
X08304Y-01387D01*
X08349Y-01446D01*
X08399Y-01501D01*
X08454Y-01551D01*
X08513Y-01596D01*
X08576Y-01636D01*
X08641Y-01670D01*
X08710Y-01698D01*
X08781Y-01721D01*
X08853Y-01737D01*
X08926Y-01746D01*
X09000Y-01750D01*
X09850Y-00900D02*
X09846Y-00826D01*
X09837Y-00753D01*
X09821Y-00681D01*
X09798Y-00610D01*
X09770Y-00541D01*
X09736Y-00476D01*
X09696Y-00413D01*
X09651Y-00354D01*
X09601Y-00299D01*
X09546Y-00249D01*
X09487Y-00204D01*
X09425Y-00164D01*
X09359Y-00130D01*
X09290Y-00102D01*
X09219Y-00079D01*
X09147Y-00063D01*
X09074Y-00054D01*
X09000Y-00050D01*
G54D14*
X09750Y-02380D02*
X08250Y-02380D01*
G54D15*
X09707Y-03400D02*
X09693Y-03537D01*
X09653Y-03669D01*
X09588Y-03791D01*
X09501Y-03898D01*
X09395Y-03986D01*
X09273Y-04051D01*
X09142Y-04092D01*
X09004Y-04106D01*
X08868Y-04094D01*
X08736Y-04055D01*
X08613Y-03991D01*
X08506Y-03905D01*
X08417Y-03799D01*
X08351Y-03678D01*
X08309Y-03546D01*
X08294Y-03409D01*
X08305Y-03273D01*
X08343Y-03140D01*
X08406Y-03018D01*
X08492Y-02909D01*
X08597Y-02820D01*
X08717Y-02753D01*
X08849Y-02710D01*
X08986Y-02694D01*
X09122Y-02704D01*
X09255Y-02741D01*
X09378Y-02804D01*
X09487Y-02889D01*
X09577Y-02993D01*
X09645Y-03113D01*
X09689Y-03244D01*
X09706Y-03381D01*
X09707Y-03400D01*
G54D16*
X08250Y-02401D02*
X08166Y-02470D01*
X08088Y-02546D01*
X08017Y-02629D01*
X07953Y-02718D01*
X07898Y-02812D01*
X07851Y-02910D01*
X07812Y-03012D01*
X07783Y-03117D01*
X07763Y-03224D01*
X07752Y-03333D01*
X07751Y-03441D01*
X07760Y-03550D01*
X07777Y-03657D01*
X07804Y-03763D01*
X07841Y-03866D01*
X07886Y-03965D01*
X07939Y-04060D01*
X08001Y-04150D01*
X08070Y-04234D01*
X08146Y-04312D01*
X08229Y-04383D01*
X08318Y-04447D01*
X08412Y-04502D01*
X08510Y-04549D01*
X08612Y-04588D01*
X08717Y-04617D01*
X08824Y-04637D01*
X08933Y-04648D01*
X09041Y-04649D01*
X09150Y-04640D01*
X09257Y-04623D01*
X09363Y-04596D01*
X09466Y-04559D01*
X09565Y-04514D01*
X09660Y-04461D01*
X09750Y-04399D01*
X09834Y-04330D01*
X09912Y-04254D01*
X09983Y-04171D01*
X10047Y-04082D01*
X10102Y-03988D01*
X10149Y-03890D01*
X10188Y-03788D01*
X10217Y-03683D01*
X10237Y-03576D01*
X10248Y-03467D01*
X10249Y-03359D01*
X10240Y-03250D01*
X10223Y-03143D01*
X10196Y-03037D01*
X10159Y-02934D01*
X10114Y-02835D01*
X10061Y-02740D01*
X09999Y-02650D01*
X09930Y-02566D01*
X09854Y-02488D01*
X09771Y-02417D01*
X09750Y-02401D01*
G54D10*
X08550Y-03400D02*
X08552Y-03439D01*
X08557Y-03478D01*
X08566Y-03516D01*
X08578Y-03553D01*
X08593Y-03590D01*
X08611Y-03624D01*
X08632Y-03658D01*
X08656Y-03689D01*
X08682Y-03718D01*
X08711Y-03744D01*
X08742Y-03768D01*
X08776Y-03789D01*
X08810Y-03807D01*
X08847Y-03822D01*
X08884Y-03834D01*
X08922Y-03843D01*
X08961Y-03848D01*
X09000Y-03850D01*
X09450Y-03400D02*
X09448Y-03361D01*
X09443Y-03322D01*
X09434Y-03284D01*
X09422Y-03247D01*
X09407Y-03210D01*
X09389Y-03176D01*
X09368Y-03142D01*
X09344Y-03111D01*
X09318Y-03082D01*
X09289Y-03056D01*
X09258Y-03032D01*
X09225Y-03011D01*
X09190Y-02993D01*
X09153Y-02978D01*
X09116Y-02966D01*
X09078Y-02957D01*
X09039Y-02952D01*
X09000Y-02950D01*
X08350Y-03400D02*
X08353Y-03456D01*
X08360Y-03512D01*
X08373Y-03568D01*
X08390Y-03622D01*
X08411Y-03674D01*
X08438Y-03724D01*
X08468Y-03772D01*
X08503Y-03817D01*
X08541Y-03859D01*
X08583Y-03897D01*
X08628Y-03932D01*
X08676Y-03962D01*
X08726Y-03989D01*
X08778Y-04010D01*
X08832Y-04027D01*
X08888Y-04040D01*
X08944Y-04047D01*
X09000Y-04050D01*
X09650Y-03400D02*
X09647Y-03344D01*
X09640Y-03288D01*
X09627Y-03232D01*
X09610Y-03178D01*
X09589Y-03126D01*
X09562Y-03076D01*
X09532Y-03028D01*
X09497Y-02983D01*
X09459Y-02941D01*
X09417Y-02903D01*
X09372Y-02868D01*
X09325Y-02838D01*
X09274Y-02811D01*
X09222Y-02790D01*
X09168Y-02773D01*
X09112Y-02760D01*
X09056Y-02753D01*
X09000Y-02750D01*
X08150Y-03400D02*
X08154Y-03474D01*
X08163Y-03547D01*
X08179Y-03619D01*
X08202Y-03690D01*
X08230Y-03759D01*
X08264Y-03824D01*
X08304Y-03887D01*
X08349Y-03946D01*
X08399Y-04001D01*
X08454Y-04051D01*
X08513Y-04096D01*
X08576Y-04136D01*
X08641Y-04170D01*
X08710Y-04198D01*
X08781Y-04221D01*
X08853Y-04237D01*
X08926Y-04246D01*
X09000Y-04250D01*
X09850Y-03400D02*
X09846Y-03326D01*
X09837Y-03253D01*
X09821Y-03181D01*
X09798Y-03110D01*
X09770Y-03041D01*
X09736Y-02976D01*
X09696Y-02913D01*
X09651Y-02854D01*
X09601Y-02799D01*
X09546Y-02749D01*
X09487Y-02704D01*
X09425Y-02664D01*
X09359Y-02630D01*
X09290Y-02602D01*
X09219Y-02579D01*
X09147Y-02563D01*
X09074Y-02554D01*
X09000Y-02550D01*
G54D14*
X09750Y-04880D02*
X08250Y-04880D01*
G54D15*
X09707Y-05900D02*
X09693Y-06037D01*
X09653Y-06169D01*
X09588Y-06291D01*
X09501Y-06398D01*
X09395Y-06486D01*
X09273Y-06551D01*
X09142Y-06592D01*
X09004Y-06606D01*
X08868Y-06594D01*
X08736Y-06555D01*
X08613Y-06491D01*
X08506Y-06405D01*
X08417Y-06299D01*
X08351Y-06178D01*
X08309Y-06046D01*
X08294Y-05909D01*
X08305Y-05773D01*
X08343Y-05640D01*
X08406Y-05518D01*
X08492Y-05409D01*
X08597Y-05320D01*
X08717Y-05253D01*
X08849Y-05210D01*
X08986Y-05194D01*
X09122Y-05204D01*
X09255Y-05241D01*
X09378Y-05304D01*
X09487Y-05389D01*
X09577Y-05493D01*
X09645Y-05613D01*
X09689Y-05744D01*
X09706Y-05881D01*
X09707Y-05900D01*
G54D16*
X08250Y-04901D02*
X08166Y-04970D01*
X08088Y-05046D01*
X08017Y-05129D01*
X07953Y-05218D01*
X07898Y-05312D01*
X07851Y-05410D01*
X07812Y-05512D01*
X07783Y-05617D01*
X07763Y-05724D01*
X07752Y-05833D01*
X07751Y-05941D01*
X07760Y-06050D01*
X07777Y-06157D01*
X07804Y-06263D01*
X07841Y-06366D01*
X07886Y-06465D01*
X07939Y-06560D01*
X08001Y-06650D01*
X08070Y-06734D01*
X08146Y-06812D01*
X08229Y-06883D01*
X08318Y-06947D01*
X08412Y-07002D01*
X08510Y-07049D01*
X08612Y-07088D01*
X08717Y-07117D01*
X08824Y-07137D01*
X08933Y-07148D01*
X09041Y-07149D01*
X09150Y-07140D01*
X09257Y-07123D01*
X09363Y-07096D01*
X09466Y-07059D01*
X09565Y-07014D01*
X09660Y-06961D01*
X09750Y-06899D01*
X09834Y-06830D01*
X09912Y-06754D01*
X09983Y-06671D01*
X10047Y-06582D01*
X10102Y-06488D01*
X10149Y-06390D01*
X10188Y-06288D01*
X10217Y-06183D01*
X10237Y-06076D01*
X10248Y-05967D01*
X10249Y-05859D01*
X10240Y-05750D01*
X10223Y-05643D01*
X10196Y-05537D01*
X10159Y-05434D01*
X10114Y-05335D01*
X10061Y-05240D01*
X09999Y-05150D01*
X09930Y-05066D01*
X09854Y-04988D01*
X09771Y-04917D01*
X09750Y-04901D01*
G54D10*
X08550Y-05900D02*
X08552Y-05939D01*
X08557Y-05978D01*
X08566Y-06016D01*
X08578Y-06053D01*
X08593Y-06090D01*
X08611Y-06124D01*
X08632Y-06158D01*
X08656Y-06189D01*
X08682Y-06218D01*
X08711Y-06244D01*
X08742Y-06268D01*
X08776Y-06289D01*
X08810Y-06307D01*
X08847Y-06322D01*
X08884Y-06334D01*
X08922Y-06343D01*
X08961Y-06348D01*
X09000Y-06350D01*
X09450Y-05900D02*
X09448Y-05861D01*
X09443Y-05822D01*
X09434Y-05784D01*
X09422Y-05747D01*
X09407Y-05710D01*
X09389Y-05676D01*
X09368Y-05642D01*
X09344Y-05611D01*
X09318Y-05582D01*
X09289Y-05556D01*
X09258Y-05532D01*
X09225Y-05511D01*
X09190Y-05493D01*
X09153Y-05478D01*
X09116Y-05466D01*
X09078Y-05457D01*
X09039Y-05452D01*
X09000Y-05450D01*
X08350Y-05900D02*
X08353Y-05956D01*
X08360Y-06012D01*
X08373Y-06068D01*
X08390Y-06122D01*
X08411Y-06174D01*
X08438Y-06224D01*
X08468Y-06272D01*
X08503Y-06317D01*
X08541Y-06359D01*
X08583Y-06397D01*
X08628Y-06432D01*
X08676Y-06462D01*
X08726Y-06489D01*
X08778Y-06510D01*
X08832Y-06527D01*
X08888Y-06540D01*
X08944Y-06547D01*
X09000Y-06550D01*
X09650Y-05900D02*
X09647Y-05844D01*
X09640Y-05788D01*
X09627Y-05732D01*
X09610Y-05678D01*
X09589Y-05626D01*
X09562Y-05576D01*
X09532Y-05528D01*
X09497Y-05483D01*
X09459Y-05441D01*
X09417Y-05403D01*
X09372Y-05368D01*
X09325Y-05338D01*
X09274Y-05311D01*
X09222Y-05290D01*
X09168Y-05273D01*
X09112Y-05260D01*
X09056Y-05253D01*
X09000Y-05250D01*
X08150Y-05900D02*
X08154Y-05974D01*
X08163Y-06047D01*
X08179Y-06119D01*
X08202Y-06190D01*
X08230Y-06259D01*
X08264Y-06324D01*
X08304Y-06387D01*
X08349Y-06446D01*
X08399Y-06501D01*
X08454Y-06551D01*
X08513Y-06596D01*
X08576Y-06636D01*
X08641Y-06670D01*
X08710Y-06698D01*
X08781Y-06721D01*
X08853Y-06737D01*
X08926Y-06746D01*
X09000Y-06750D01*
X09850Y-05900D02*
X09846Y-05826D01*
X09837Y-05753D01*
X09821Y-05681D01*
X09798Y-05610D01*
X09770Y-05541D01*
X09736Y-05476D01*
X09696Y-05413D01*
X09651Y-05354D01*
X09601Y-05299D01*
X09546Y-05249D01*
X09487Y-05204D01*
X09425Y-05164D01*
X09359Y-05130D01*
X09290Y-05102D01*
X09219Y-05079D01*
X09147Y-05063D01*
X09074Y-05054D01*
X09000Y-05050D01*
G54D14*
X09750Y-07380D02*
X08250Y-07380D01*
G54D15*
X09707Y-08400D02*
X09693Y-08537D01*
X09653Y-08669D01*
X09588Y-08791D01*
X09501Y-08898D01*
X09395Y-08986D01*
X09273Y-09051D01*
X09142Y-09092D01*
X09004Y-09106D01*
X08868Y-09094D01*
X08736Y-09055D01*
X08613Y-08991D01*
X08506Y-08905D01*
X08417Y-08799D01*
X08351Y-08678D01*
X08309Y-08546D01*
X08294Y-08409D01*
X08305Y-08273D01*
X08343Y-08140D01*
X08406Y-08018D01*
X08492Y-07909D01*
X08597Y-07820D01*
X08717Y-07753D01*
X08849Y-07710D01*
X08986Y-07694D01*
X09122Y-07704D01*
X09255Y-07741D01*
X09378Y-07804D01*
X09487Y-07889D01*
X09577Y-07993D01*
X09645Y-08113D01*
X09689Y-08244D01*
X09706Y-08381D01*
X09707Y-08400D01*
G54D16*
X08250Y-07401D02*
X08166Y-07470D01*
X08088Y-07546D01*
X08017Y-07629D01*
X07953Y-07718D01*
X07898Y-07812D01*
X07851Y-07910D01*
X07812Y-08012D01*
X07783Y-08117D01*
X07763Y-08224D01*
X07752Y-08333D01*
X07751Y-08441D01*
X07760Y-08550D01*
X07777Y-08657D01*
X07804Y-08763D01*
X07841Y-08866D01*
X07886Y-08965D01*
X07939Y-09060D01*
X08001Y-09150D01*
X08070Y-09234D01*
X08146Y-09312D01*
X08229Y-09383D01*
X08318Y-09447D01*
X08412Y-09502D01*
X08510Y-09549D01*
X08612Y-09588D01*
X08717Y-09617D01*
X08824Y-09637D01*
X08933Y-09648D01*
X09041Y-09649D01*
X09150Y-09640D01*
X09257Y-09623D01*
X09363Y-09596D01*
X09466Y-09559D01*
X09565Y-09514D01*
X09660Y-09461D01*
X09750Y-09399D01*
X09834Y-09330D01*
X09912Y-09254D01*
X09983Y-09171D01*
X10047Y-09082D01*
X10102Y-08988D01*
X10149Y-08890D01*
X10188Y-08788D01*
X10217Y-08683D01*
X10237Y-08576D01*
X10248Y-08467D01*
X10249Y-08359D01*
X10240Y-08250D01*
X10223Y-08143D01*
X10196Y-08037D01*
X10159Y-07934D01*
X10114Y-07835D01*
X10061Y-07740D01*
X09999Y-07650D01*
X09930Y-07566D01*
X09854Y-07488D01*
X09771Y-07417D01*
X09750Y-07401D01*
G54D10*
X08550Y-08400D02*
X08552Y-08439D01*
X08557Y-08478D01*
X08566Y-08516D01*
X08578Y-08553D01*
X08593Y-08590D01*
X08611Y-08624D01*
X08632Y-08658D01*
X08656Y-08689D01*
X08682Y-08718D01*
X08711Y-08744D01*
X08742Y-08768D01*
X08776Y-08789D01*
X08810Y-08807D01*
X08847Y-08822D01*
X08884Y-08834D01*
X08922Y-08843D01*
X08961Y-08848D01*
X09000Y-08850D01*
X09450Y-08400D02*
X09448Y-08361D01*
X09443Y-08322D01*
X09434Y-08284D01*
X09422Y-08247D01*
X09407Y-08210D01*
X09389Y-08176D01*
X09368Y-08142D01*
X09344Y-08111D01*
X09318Y-08082D01*
X09289Y-08056D01*
X09258Y-08032D01*
X09225Y-08011D01*
X09190Y-07993D01*
X09153Y-07978D01*
X09116Y-07966D01*
X09078Y-07957D01*
X09039Y-07952D01*
X09000Y-07950D01*
X08350Y-08400D02*
X08353Y-08456D01*
X08360Y-08512D01*
X08373Y-08568D01*
X08390Y-08622D01*
X08411Y-08674D01*
X08438Y-08724D01*
X08468Y-08772D01*
X08503Y-08817D01*
X08541Y-08859D01*
X08583Y-08897D01*
X08628Y-08932D01*
X08676Y-08962D01*
X08726Y-08989D01*
X08778Y-09010D01*
X08832Y-09027D01*
X08888Y-09040D01*
X08944Y-09047D01*
X09000Y-09050D01*
X09650Y-08400D02*
X09647Y-08344D01*
X09640Y-08288D01*
X09627Y-08232D01*
X09610Y-08178D01*
X09589Y-08126D01*
X09562Y-08076D01*
X09532Y-08028D01*
X09497Y-07983D01*
X09459Y-07941D01*
X09417Y-07903D01*
X09372Y-07868D01*
X09325Y-07838D01*
X09274Y-07811D01*
X09222Y-07790D01*
X09168Y-07773D01*
X09112Y-07760D01*
X09056Y-07753D01*
X09000Y-07750D01*
X08150Y-08400D02*
X08154Y-08474D01*
X08163Y-08547D01*
X08179Y-08619D01*
X08202Y-08690D01*
X08230Y-08759D01*
X08264Y-08824D01*
X08304Y-08887D01*
X08349Y-08946D01*
X08399Y-09001D01*
X08454Y-09051D01*
X08513Y-09096D01*
X08576Y-09136D01*
X08641Y-09170D01*
X08710Y-09198D01*
X08781Y-09221D01*
X08853Y-09237D01*
X08926Y-09246D01*
X09000Y-09250D01*
X09850Y-08400D02*
X09846Y-08326D01*
X09837Y-08253D01*
X09821Y-08181D01*
X09798Y-08110D01*
X09770Y-08041D01*
X09736Y-07976D01*
X09696Y-07913D01*
X09651Y-07854D01*
X09601Y-07799D01*
X09546Y-07749D01*
X09487Y-07704D01*
X09425Y-07664D01*
X09359Y-07630D01*
X09290Y-07602D01*
X09219Y-07579D01*
X09147Y-07563D01*
X09074Y-07554D01*
X09000Y-07550D01*
G54D14*
X09750Y-09880D02*
X08250Y-09880D01*
G54D15*
X09707Y-10900D02*
X09693Y-11037D01*
X09653Y-11169D01*
X09588Y-11291D01*
X09501Y-11398D01*
X09395Y-11486D01*
X09273Y-11551D01*
X09142Y-11592D01*
X09004Y-11606D01*
X08868Y-11594D01*
X08736Y-11555D01*
X08613Y-11491D01*
X08506Y-11405D01*
X08417Y-11299D01*
X08351Y-11178D01*
X08309Y-11046D01*
X08294Y-10909D01*
X08305Y-10773D01*
X08343Y-10640D01*
X08406Y-10518D01*
X08492Y-10409D01*
X08597Y-10320D01*
X08717Y-10253D01*
X08849Y-10210D01*
X08986Y-10194D01*
X09122Y-10204D01*
X09255Y-10241D01*
X09378Y-10304D01*
X09487Y-10389D01*
X09577Y-10493D01*
X09645Y-10613D01*
X09689Y-10744D01*
X09706Y-10881D01*
X09707Y-10900D01*
G54D16*
X08250Y-09901D02*
X08166Y-09970D01*
X08088Y-10046D01*
X08017Y-10129D01*
X07953Y-10218D01*
X07898Y-10312D01*
X07851Y-10410D01*
X07812Y-10512D01*
X07783Y-10617D01*
X07763Y-10724D01*
X07752Y-10833D01*
X07751Y-10941D01*
X07760Y-11050D01*
X07777Y-11157D01*
X07804Y-11263D01*
X07841Y-11366D01*
X07886Y-11465D01*
X07939Y-11560D01*
X08001Y-11650D01*
X08070Y-11734D01*
X08146Y-11812D01*
X08229Y-11883D01*
X08318Y-11947D01*
X08412Y-12002D01*
X08510Y-12049D01*
X08612Y-12088D01*
X08717Y-12117D01*
X08824Y-12137D01*
X08933Y-12148D01*
X09041Y-12149D01*
X09150Y-12140D01*
X09257Y-12123D01*
X09363Y-12096D01*
X09466Y-12059D01*
X09565Y-12014D01*
X09660Y-11961D01*
X09750Y-11899D01*
X09834Y-11830D01*
X09912Y-11754D01*
X09983Y-11671D01*
X10047Y-11582D01*
X10102Y-11488D01*
X10149Y-11390D01*
X10188Y-11288D01*
X10217Y-11183D01*
X10237Y-11076D01*
X10248Y-10967D01*
X10249Y-10859D01*
X10240Y-10750D01*
X10223Y-10643D01*
X10196Y-10537D01*
X10159Y-10434D01*
X10114Y-10335D01*
X10061Y-10240D01*
X09999Y-10150D01*
X09930Y-10066D01*
X09854Y-09988D01*
X09771Y-09917D01*
X09750Y-09901D01*
G54D10*
X08550Y-10900D02*
X08552Y-10939D01*
X08557Y-10978D01*
X08566Y-11016D01*
X08578Y-11053D01*
X08593Y-11090D01*
X08611Y-11124D01*
X08632Y-11158D01*
X08656Y-11189D01*
X08682Y-11218D01*
X08711Y-11244D01*
X08742Y-11268D01*
X08776Y-11289D01*
X08810Y-11307D01*
X08847Y-11322D01*
X08884Y-11334D01*
X08922Y-11343D01*
X08961Y-11348D01*
X09000Y-11350D01*
X09450Y-10900D02*
X09448Y-10861D01*
X09443Y-10822D01*
X09434Y-10784D01*
X09422Y-10747D01*
X09407Y-10710D01*
X09389Y-10676D01*
X09368Y-10642D01*
X09344Y-10611D01*
X09318Y-10582D01*
X09289Y-10556D01*
X09258Y-10532D01*
X09225Y-10511D01*
X09190Y-10493D01*
X09153Y-10478D01*
X09116Y-10466D01*
X09078Y-10457D01*
X09039Y-10452D01*
X09000Y-10450D01*
X08350Y-10900D02*
X08353Y-10956D01*
X08360Y-11012D01*
X08373Y-11068D01*
X08390Y-11122D01*
X08411Y-11174D01*
X08438Y-11224D01*
X08468Y-11272D01*
X08503Y-11317D01*
X08541Y-11359D01*
X08583Y-11397D01*
X08628Y-11432D01*
X08676Y-11462D01*
X08726Y-11489D01*
X08778Y-11510D01*
X08832Y-11527D01*
X08888Y-11540D01*
X08944Y-11547D01*
X09000Y-11550D01*
X09650Y-10900D02*
X09647Y-10844D01*
X09640Y-10788D01*
X09627Y-10732D01*
X09610Y-10678D01*
X09589Y-10626D01*
X09562Y-10576D01*
X09532Y-10528D01*
X09497Y-10483D01*
X09459Y-10441D01*
X09417Y-10403D01*
X09372Y-10368D01*
X09325Y-10338D01*
X09274Y-10311D01*
X09222Y-10290D01*
X09168Y-10273D01*
X09112Y-10260D01*
X09056Y-10253D01*
X09000Y-10250D01*
X08150Y-10900D02*
X08154Y-10974D01*
X08163Y-11047D01*
X08179Y-11119D01*
X08202Y-11190D01*
X08230Y-11259D01*
X08264Y-11324D01*
X08304Y-11387D01*
X08349Y-11446D01*
X08399Y-11501D01*
X08454Y-11551D01*
X08513Y-11596D01*
X08576Y-11636D01*
X08641Y-11670D01*
X08710Y-11698D01*
X08781Y-11721D01*
X08853Y-11737D01*
X08926Y-11746D01*
X09000Y-11750D01*
X09850Y-10900D02*
X09846Y-10826D01*
X09837Y-10753D01*
X09821Y-10681D01*
X09798Y-10610D01*
X09770Y-10541D01*
X09736Y-10476D01*
X09696Y-10413D01*
X09651Y-10354D01*
X09601Y-10299D01*
X09546Y-10249D01*
X09487Y-10204D01*
X09425Y-10164D01*
X09359Y-10130D01*
X09290Y-10102D01*
X09219Y-10079D01*
X09147Y-10063D01*
X09074Y-10054D01*
X09000Y-10050D01*
G54D14*
X09750Y-12380D02*
X08250Y-12380D01*
G54D15*
X09707Y-13400D02*
X09693Y-13537D01*
X09653Y-13669D01*
X09588Y-13791D01*
X09501Y-13898D01*
X09395Y-13986D01*
X09273Y-14051D01*
X09142Y-14092D01*
X09004Y-14106D01*
X08868Y-14094D01*
X08736Y-14055D01*
X08613Y-13991D01*
X08506Y-13905D01*
X08417Y-13799D01*
X08351Y-13678D01*
X08309Y-13546D01*
X08294Y-13409D01*
X08305Y-13273D01*
X08343Y-13140D01*
X08406Y-13018D01*
X08492Y-12909D01*
X08597Y-12820D01*
X08717Y-12753D01*
X08849Y-12710D01*
X08986Y-12694D01*
X09122Y-12704D01*
X09255Y-12741D01*
X09378Y-12804D01*
X09487Y-12889D01*
X09577Y-12993D01*
X09645Y-13113D01*
X09689Y-13244D01*
X09706Y-13381D01*
X09707Y-13400D01*
G54D16*
X08250Y-12401D02*
X08166Y-12470D01*
X08088Y-12546D01*
X08017Y-12629D01*
X07953Y-12718D01*
X07898Y-12812D01*
X07851Y-12910D01*
X07812Y-13012D01*
X07783Y-13117D01*
X07763Y-13224D01*
X07752Y-13333D01*
X07751Y-13441D01*
X07760Y-13550D01*
X07777Y-13657D01*
X07804Y-13763D01*
X07841Y-13866D01*
X07886Y-13965D01*
X07939Y-14060D01*
X08001Y-14150D01*
X08070Y-14234D01*
X08146Y-14312D01*
X08229Y-14383D01*
X08318Y-14447D01*
X08412Y-14502D01*
X08510Y-14549D01*
X08612Y-14588D01*
X08717Y-14617D01*
X08824Y-14637D01*
X08933Y-14648D01*
X09041Y-14649D01*
X09150Y-14640D01*
X09257Y-14623D01*
X09363Y-14596D01*
X09466Y-14559D01*
X09565Y-14514D01*
X09660Y-14461D01*
X09750Y-14399D01*
X09834Y-14330D01*
X09912Y-14254D01*
X09983Y-14171D01*
X10047Y-14082D01*
X10102Y-13988D01*
X10149Y-13890D01*
X10188Y-13788D01*
X10217Y-13683D01*
X10237Y-13576D01*
X10248Y-13467D01*
X10249Y-13359D01*
X10240Y-13250D01*
X10223Y-13143D01*
X10196Y-13037D01*
X10159Y-12934D01*
X10114Y-12835D01*
X10061Y-12740D01*
X09999Y-12650D01*
X09930Y-12566D01*
X09854Y-12488D01*
X09771Y-12417D01*
X09750Y-12401D01*
G54D10*
X08550Y-13400D02*
X08552Y-13439D01*
X08557Y-13478D01*
X08566Y-13516D01*
X08578Y-13553D01*
X08593Y-13590D01*
X08611Y-13624D01*
X08632Y-13658D01*
X08656Y-13689D01*
X08682Y-13718D01*
X08711Y-13744D01*
X08742Y-13768D01*
X08776Y-13789D01*
X08810Y-13807D01*
X08847Y-13822D01*
X08884Y-13834D01*
X08922Y-13843D01*
X08961Y-13848D01*
X09000Y-13850D01*
X09450Y-13400D02*
X09448Y-13361D01*
X09443Y-13322D01*
X09434Y-13284D01*
X09422Y-13247D01*
X09407Y-13210D01*
X09389Y-13176D01*
X09368Y-13142D01*
X09344Y-13111D01*
X09318Y-13082D01*
X09289Y-13056D01*
X09258Y-13032D01*
X09225Y-13011D01*
X09190Y-12993D01*
X09153Y-12978D01*
X09116Y-12966D01*
X09078Y-12957D01*
X09039Y-12952D01*
X09000Y-12950D01*
X08350Y-13400D02*
X08353Y-13456D01*
X08360Y-13512D01*
X08373Y-13568D01*
X08390Y-13622D01*
X08411Y-13674D01*
X08438Y-13724D01*
X08468Y-13772D01*
X08503Y-13817D01*
X08541Y-13859D01*
X08583Y-13897D01*
X08628Y-13932D01*
X08676Y-13962D01*
X08726Y-13989D01*
X08778Y-14010D01*
X08832Y-14027D01*
X08888Y-14040D01*
X08944Y-14047D01*
X09000Y-14050D01*
X09650Y-13400D02*
X09647Y-13344D01*
X09640Y-13288D01*
X09627Y-13232D01*
X09610Y-13178D01*
X09589Y-13126D01*
X09562Y-13076D01*
X09532Y-13028D01*
X09497Y-12983D01*
X09459Y-12941D01*
X09417Y-12903D01*
X09372Y-12868D01*
X09325Y-12838D01*
X09274Y-12811D01*
X09222Y-12790D01*
X09168Y-12773D01*
X09112Y-12760D01*
X09056Y-12753D01*
X09000Y-12750D01*
X08150Y-13400D02*
X08154Y-13474D01*
X08163Y-13547D01*
X08179Y-13619D01*
X08202Y-13690D01*
X08230Y-13759D01*
X08264Y-13824D01*
X08304Y-13887D01*
X08349Y-13946D01*
X08399Y-14001D01*
X08454Y-14051D01*
X08513Y-14096D01*
X08576Y-14136D01*
X08641Y-14170D01*
X08710Y-14198D01*
X08781Y-14221D01*
X08853Y-14237D01*
X08926Y-14246D01*
X09000Y-14250D01*
X09850Y-13400D02*
X09846Y-13326D01*
X09837Y-13253D01*
X09821Y-13181D01*
X09798Y-13110D01*
X09770Y-13041D01*
X09736Y-12976D01*
X09696Y-12913D01*
X09651Y-12854D01*
X09601Y-12799D01*
X09546Y-12749D01*
X09487Y-12704D01*
X09425Y-12664D01*
X09359Y-12630D01*
X09290Y-12602D01*
X09219Y-12579D01*
X09147Y-12563D01*
X09074Y-12554D01*
X09000Y-12550D01*
G54D14*
X09750Y-14880D02*
X08250Y-14880D01*
G54D15*
X09707Y-15900D02*
X09693Y-16037D01*
X09653Y-16169D01*
X09588Y-16291D01*
X09501Y-16398D01*
X09395Y-16486D01*
X09273Y-16551D01*
X09142Y-16592D01*
X09004Y-16606D01*
X08868Y-16594D01*
X08736Y-16555D01*
X08613Y-16491D01*
X08506Y-16405D01*
X08417Y-16299D01*
X08351Y-16178D01*
X08309Y-16046D01*
X08294Y-15909D01*
X08305Y-15773D01*
X08343Y-15640D01*
X08406Y-15518D01*
X08492Y-15409D01*
X08597Y-15320D01*
X08717Y-15253D01*
X08849Y-15210D01*
X08986Y-15194D01*
X09122Y-15204D01*
X09255Y-15241D01*
X09378Y-15304D01*
X09487Y-15389D01*
X09577Y-15493D01*
X09645Y-15613D01*
X09689Y-15744D01*
X09706Y-15881D01*
X09707Y-15900D01*
G54D16*
X08250Y-14901D02*
X08166Y-14970D01*
X08088Y-15046D01*
X08017Y-15129D01*
X07953Y-15218D01*
X07898Y-15312D01*
X07851Y-15410D01*
X07812Y-15512D01*
X07783Y-15617D01*
X07763Y-15724D01*
X07752Y-15833D01*
X07751Y-15941D01*
X07760Y-16050D01*
X07777Y-16157D01*
X07804Y-16263D01*
X07841Y-16366D01*
X07886Y-16465D01*
X07939Y-16560D01*
X08001Y-16650D01*
X08070Y-16734D01*
X08146Y-16812D01*
X08229Y-16883D01*
X08318Y-16947D01*
X08412Y-17002D01*
X08510Y-17049D01*
X08612Y-17088D01*
X08717Y-17117D01*
X08824Y-17137D01*
X08933Y-17148D01*
X09041Y-17149D01*
X09150Y-17140D01*
X09257Y-17123D01*
X09363Y-17096D01*
X09466Y-17059D01*
X09565Y-17014D01*
X09660Y-16961D01*
X09750Y-16899D01*
X09834Y-16830D01*
X09912Y-16754D01*
X09983Y-16671D01*
X10047Y-16582D01*
X10102Y-16488D01*
X10149Y-16390D01*
X10188Y-16288D01*
X10217Y-16183D01*
X10237Y-16076D01*
X10248Y-15967D01*
X10249Y-15859D01*
X10240Y-15750D01*
X10223Y-15643D01*
X10196Y-15537D01*
X10159Y-15434D01*
X10114Y-15335D01*
X10061Y-15240D01*
X09999Y-15150D01*
X09930Y-15066D01*
X09854Y-14988D01*
X09771Y-14917D01*
X09750Y-14901D01*
G54D10*
X08550Y-15900D02*
X08552Y-15939D01*
X08557Y-15978D01*
X08566Y-16016D01*
X08578Y-16053D01*
X08593Y-16090D01*
X08611Y-16124D01*
X08632Y-16158D01*
X08656Y-16189D01*
X08682Y-16218D01*
X08711Y-16244D01*
X08742Y-16268D01*
X08776Y-16289D01*
X08810Y-16307D01*
X08847Y-16322D01*
X08884Y-16334D01*
X08922Y-16343D01*
X08961Y-16348D01*
X09000Y-16350D01*
X09450Y-15900D02*
X09448Y-15861D01*
X09443Y-15822D01*
X09434Y-15784D01*
X09422Y-15747D01*
X09407Y-15710D01*
X09389Y-15676D01*
X09368Y-15642D01*
X09344Y-15611D01*
X09318Y-15582D01*
X09289Y-15556D01*
X09258Y-15532D01*
X09225Y-15511D01*
X09190Y-15493D01*
X09153Y-15478D01*
X09116Y-15466D01*
X09078Y-15457D01*
X09039Y-15452D01*
X09000Y-15450D01*
X08350Y-15900D02*
X08353Y-15956D01*
X08360Y-16012D01*
X08373Y-16068D01*
X08390Y-16122D01*
X08411Y-16174D01*
X08438Y-16224D01*
X08468Y-16272D01*
X08503Y-16317D01*
X08541Y-16359D01*
X08583Y-16397D01*
X08628Y-16432D01*
X08676Y-16462D01*
X08726Y-16489D01*
X08778Y-16510D01*
X08832Y-16527D01*
X08888Y-16540D01*
X08944Y-16547D01*
X09000Y-16550D01*
X09650Y-15900D02*
X09647Y-15844D01*
X09640Y-15788D01*
X09627Y-15732D01*
X09610Y-15678D01*
X09589Y-15626D01*
X09562Y-15576D01*
X09532Y-15528D01*
X09497Y-15483D01*
X09459Y-15441D01*
X09417Y-15403D01*
X09372Y-15368D01*
X09325Y-15338D01*
X09274Y-15311D01*
X09222Y-15290D01*
X09168Y-15273D01*
X09112Y-15260D01*
X09056Y-15253D01*
X09000Y-15250D01*
X08150Y-15900D02*
X08154Y-15974D01*
X08163Y-16047D01*
X08179Y-16119D01*
X08202Y-16190D01*
X08230Y-16259D01*
X08264Y-16324D01*
X08304Y-16387D01*
X08349Y-16446D01*
X08399Y-16501D01*
X08454Y-16551D01*
X08513Y-16596D01*
X08576Y-16636D01*
X08641Y-16670D01*
X08710Y-16698D01*
X08781Y-16721D01*
X08853Y-16737D01*
X08926Y-16746D01*
X09000Y-16750D01*
X09850Y-15900D02*
X09846Y-15826D01*
X09837Y-15753D01*
X09821Y-15681D01*
X09798Y-15610D01*
X09770Y-15541D01*
X09736Y-15476D01*
X09696Y-15413D01*
X09651Y-15354D01*
X09601Y-15299D01*
X09546Y-15249D01*
X09487Y-15204D01*
X09425Y-15164D01*
X09359Y-15130D01*
X09290Y-15102D01*
X09219Y-15079D01*
X09147Y-15063D01*
X09074Y-15054D01*
X09000Y-15050D01*
G54D14*
X09750Y-17380D02*
X08250Y-17380D01*
G54D15*
X09707Y-18400D02*
X09693Y-18537D01*
X09653Y-18669D01*
X09588Y-18791D01*
X09501Y-18898D01*
X09395Y-18986D01*
X09273Y-19051D01*
X09142Y-19092D01*
X09004Y-19106D01*
X08868Y-19094D01*
X08736Y-19055D01*
X08613Y-18991D01*
X08506Y-18905D01*
X08417Y-18799D01*
X08351Y-18678D01*
X08309Y-18546D01*
X08294Y-18409D01*
X08305Y-18273D01*
X08343Y-18140D01*
X08406Y-18018D01*
X08492Y-17909D01*
X08597Y-17820D01*
X08717Y-17753D01*
X08849Y-17710D01*
X08986Y-17694D01*
X09122Y-17704D01*
X09255Y-17741D01*
X09378Y-17804D01*
X09487Y-17889D01*
X09577Y-17993D01*
X09645Y-18113D01*
X09689Y-18244D01*
X09706Y-18381D01*
X09707Y-18400D01*
G54D16*
X08250Y-17401D02*
X08166Y-17470D01*
X08088Y-17546D01*
X08017Y-17629D01*
X07953Y-17718D01*
X07898Y-17812D01*
X07851Y-17910D01*
X07812Y-18012D01*
X07783Y-18117D01*
X07763Y-18224D01*
X07752Y-18333D01*
X07751Y-18441D01*
X07760Y-18550D01*
X07777Y-18657D01*
X07804Y-18763D01*
X07841Y-18866D01*
X07886Y-18965D01*
X07939Y-19060D01*
X08001Y-19150D01*
X08070Y-19234D01*
X08146Y-19312D01*
X08229Y-19383D01*
X08318Y-19447D01*
X08412Y-19502D01*
X08510Y-19549D01*
X08612Y-19588D01*
X08717Y-19617D01*
X08824Y-19637D01*
X08933Y-19648D01*
X09041Y-19649D01*
X09150Y-19640D01*
X09257Y-19623D01*
X09363Y-19596D01*
X09466Y-19559D01*
X09565Y-19514D01*
X09660Y-19461D01*
X09750Y-19399D01*
X09834Y-19330D01*
X09912Y-19254D01*
X09983Y-19171D01*
X10047Y-19082D01*
X10102Y-18988D01*
X10149Y-18890D01*
X10188Y-18788D01*
X10217Y-18683D01*
X10237Y-18576D01*
X10248Y-18467D01*
X10249Y-18359D01*
X10240Y-18250D01*
X10223Y-18143D01*
X10196Y-18037D01*
X10159Y-17934D01*
X10114Y-17835D01*
X10061Y-17740D01*
X09999Y-17650D01*
X09930Y-17566D01*
X09854Y-17488D01*
X09771Y-17417D01*
X09750Y-17401D01*
G54D10*
X08550Y-18400D02*
X08552Y-18439D01*
X08557Y-18478D01*
X08566Y-18516D01*
X08578Y-18553D01*
X08593Y-18590D01*
X08611Y-18624D01*
X08632Y-18658D01*
X08656Y-18689D01*
X08682Y-18718D01*
X08711Y-18744D01*
X08742Y-18768D01*
X08776Y-18789D01*
X08810Y-18807D01*
X08847Y-18822D01*
X08884Y-18834D01*
X08922Y-18843D01*
X08961Y-18848D01*
X09000Y-18850D01*
X09450Y-18400D02*
X09448Y-18361D01*
X09443Y-18322D01*
X09434Y-18284D01*
X09422Y-18247D01*
X09407Y-18210D01*
X09389Y-18176D01*
X09368Y-18142D01*
X09344Y-18111D01*
X09318Y-18082D01*
X09289Y-18056D01*
X09258Y-18032D01*
X09225Y-18011D01*
X09190Y-17993D01*
X09153Y-17978D01*
X09116Y-17966D01*
X09078Y-17957D01*
X09039Y-17952D01*
X09000Y-17950D01*
X08350Y-18400D02*
X08353Y-18456D01*
X08360Y-18512D01*
X08373Y-18568D01*
X08390Y-18622D01*
X08411Y-18674D01*
X08438Y-18724D01*
X08468Y-18772D01*
X08503Y-18817D01*
X08541Y-18859D01*
X08583Y-18897D01*
X08628Y-18932D01*
X08676Y-18962D01*
X08726Y-18989D01*
X08778Y-19010D01*
X08832Y-19027D01*
X08888Y-19040D01*
X08944Y-19047D01*
X09000Y-19050D01*
X09650Y-18400D02*
X09647Y-18344D01*
X09640Y-18288D01*
X09627Y-18232D01*
X09610Y-18178D01*
X09589Y-18126D01*
X09562Y-18076D01*
X09532Y-18028D01*
X09497Y-17983D01*
X09459Y-17941D01*
X09417Y-17903D01*
X09372Y-17868D01*
X09325Y-17838D01*
X09274Y-17811D01*
X09222Y-17790D01*
X09168Y-17773D01*
X09112Y-17760D01*
X09056Y-17753D01*
X09000Y-17750D01*
X08150Y-18400D02*
X08154Y-18474D01*
X08163Y-18547D01*
X08179Y-18619D01*
X08202Y-18690D01*
X08230Y-18759D01*
X08264Y-18824D01*
X08304Y-18887D01*
X08349Y-18946D01*
X08399Y-19001D01*
X08454Y-19051D01*
X08513Y-19096D01*
X08576Y-19136D01*
X08641Y-19170D01*
X08710Y-19198D01*
X08781Y-19221D01*
X08853Y-19237D01*
X08926Y-19246D01*
X09000Y-19250D01*
X09850Y-18400D02*
X09846Y-18326D01*
X09837Y-18253D01*
X09821Y-18181D01*
X09798Y-18110D01*
X09770Y-18041D01*
X09736Y-17976D01*
X09696Y-17913D01*
X09651Y-17854D01*
X09601Y-17799D01*
X09546Y-17749D01*
X09487Y-17704D01*
X09425Y-17664D01*
X09359Y-17630D01*
X09290Y-17602D01*
X09219Y-17579D01*
X09147Y-17563D01*
X09074Y-17554D01*
X09000Y-17550D01*
G54D17*
X00985Y-15013D02*
X00280Y-15013D01*
X00280Y-14852D01*
X00313Y-14811D01*
X00347Y-14791D01*
X00414Y-14771D01*
X00515Y-14771D01*
X00582Y-14791D01*
X00616Y-14811D01*
X00649Y-14852D01*
X00649Y-15013D01*
X00985Y-14367D02*
X00985Y-14609D01*
X00985Y-14488D02*
X00280Y-14488D01*
X00381Y-14528D01*
X00448Y-14569D01*
X00481Y-14609D01*
G54D18*
X03684Y-17175D02*
X03684Y-16494D01*
X03847Y-16494D01*
X03888Y-16527D01*
X03908Y-16559D01*
X03928Y-16624D01*
X03928Y-16721D01*
X03908Y-16786D01*
X03888Y-16818D01*
X03847Y-16851D01*
X03684Y-16851D01*
X04092Y-16559D02*
X04112Y-16527D01*
X04153Y-16494D01*
X04255Y-16494D01*
X04295Y-16527D01*
X04316Y-16559D01*
X04336Y-16624D01*
X04336Y-16689D01*
X04316Y-16786D01*
X04071Y-17175D01*
X04336Y-17175D01*
G54D11*
X01475Y-02318D02*
X01475Y-02746D01*
X01447Y-02832D01*
X01390Y-02889D01*
X01304Y-02918D01*
X01247Y-02918D01*
X02075Y-02918D02*
X01732Y-02918D01*
X01904Y-02918D02*
X01904Y-02318D01*
X01847Y-02404D01*
X01789Y-02461D01*
X01732Y-02489D01*
X02658Y-02918D02*
X02658Y-02318D01*
X02801Y-02318D01*
X02886Y-02346D01*
X02944Y-02404D01*
X02972Y-02461D01*
X03001Y-02575D01*
X03001Y-02661D01*
X02972Y-02775D01*
X02944Y-02832D01*
X02886Y-02889D01*
X02801Y-02918D01*
X02658Y-02918D01*
X03458Y-02604D02*
X03544Y-02632D01*
X03572Y-02661D01*
X03601Y-02718D01*
X03601Y-02804D01*
X03572Y-02861D01*
X03544Y-02889D01*
X03486Y-02918D01*
X03258Y-02918D01*
X03258Y-02318D01*
X03458Y-02318D01*
X03515Y-02346D01*
X03544Y-02375D01*
X03572Y-02432D01*
X03572Y-02489D01*
X03544Y-02546D01*
X03515Y-02575D01*
X03458Y-02604D01*
X03258Y-02604D01*
X03886Y-02918D02*
X04001Y-02918D01*
X04058Y-02889D01*
X04086Y-02861D01*
X04144Y-02775D01*
X04172Y-02661D01*
X04172Y-02432D01*
X04144Y-02375D01*
X04115Y-02346D01*
X04058Y-02318D01*
X03944Y-02318D01*
X03886Y-02346D01*
X03858Y-02375D01*
X03829Y-02432D01*
X03829Y-02575D01*
X03858Y-02632D01*
X03886Y-02661D01*
X03944Y-02689D01*
X04058Y-02689D01*
X04115Y-02661D01*
X04144Y-02632D01*
X04172Y-02575D01*
G54D19*
X03008Y-07089D02*
X02308Y-07089D01*
X02942Y-06618D02*
X02975Y-06639D01*
X03008Y-06703D01*
X03008Y-06746D01*
X02975Y-06811D01*
X02908Y-06853D01*
X02842Y-06875D01*
X02708Y-06896D01*
X02608Y-06896D01*
X02475Y-06875D01*
X02408Y-06853D01*
X02342Y-06811D01*
X02308Y-06746D01*
X02308Y-06703D01*
X02342Y-06639D01*
X02375Y-06618D01*
X03008Y-06189D02*
X03008Y-06446D01*
X03008Y-06318D02*
X02308Y-06318D01*
X02408Y-06361D01*
X02475Y-06403D01*
X02508Y-06446D01*
G54D20*
X01835Y-09574D02*
X01835Y-09408D01*
X01977Y-09608D02*
X01477Y-09491D01*
X01977Y-09374D01*
X01477Y-09308D02*
X01477Y-09108D01*
X01977Y-09208D02*
X01477Y-09208D01*
X01477Y-09041D02*
X01477Y-08841D01*
X01977Y-08941D02*
X01477Y-08941D01*
X01977Y-08724D02*
X01477Y-08724D01*
X01977Y-08557D02*
X01477Y-08557D01*
X01977Y-08357D01*
X01477Y-08357D01*
X01739Y-08123D02*
X01977Y-08123D01*
X01477Y-08240D02*
X01739Y-08123D01*
X01477Y-08006D01*
X01525Y-07906D02*
X01501Y-07890D01*
X01477Y-07856D01*
X01477Y-07773D01*
X01501Y-07740D01*
X01525Y-07723D01*
X01573Y-07706D01*
X01620Y-07706D01*
X01692Y-07723D01*
X01977Y-07923D01*
X01977Y-07706D01*
X01477Y-07590D02*
X01477Y-07373D01*
X01668Y-07490D01*
X01668Y-07440D01*
X01692Y-07407D01*
X01715Y-07390D01*
X01763Y-07373D01*
X01882Y-07373D01*
X01930Y-07390D01*
X01954Y-07407D01*
X01977Y-07440D01*
X01977Y-07540D01*
X01954Y-07573D01*
X01930Y-07590D01*
X01977Y-07040D02*
X01977Y-07240D01*
X01977Y-07140D02*
X01477Y-07140D01*
X01549Y-07174D01*
X01596Y-07207D01*
X01620Y-07240D01*
X01477Y-06924D02*
X01477Y-06707D01*
X01668Y-06824D01*
X01668Y-06774D01*
X01692Y-06741D01*
X01715Y-06724D01*
X01763Y-06707D01*
X01882Y-06707D01*
X01930Y-06724D01*
X01954Y-06741D01*
X01977Y-06774D01*
X01977Y-06874D01*
X01954Y-06907D01*
X01930Y-06924D01*
X01787Y-06558D02*
X01787Y-06291D01*
X01977Y-06125D02*
X01477Y-06125D01*
X01477Y-05991D01*
X01501Y-05958D01*
X01525Y-05941D01*
X01573Y-05925D01*
X01644Y-05925D01*
X01692Y-05941D01*
X01715Y-05958D01*
X01739Y-05991D01*
X01739Y-06125D01*
G54D14*
X05809Y-04174D02*
X05876Y-03871D01*
X05606Y-03972D02*
X05995Y-03583D01*
X06130Y-03718D01*
X06145Y-03770D01*
X06144Y-03805D01*
X06124Y-03859D01*
X06068Y-03914D01*
X06014Y-03934D01*
X05978Y-03936D01*
X05927Y-03922D01*
X05792Y-03787D01*
X06145Y-04511D02*
X05943Y-04308D01*
X06044Y-04409D02*
X06433Y-04021D01*
X06344Y-04042D01*
X06273Y-04046D01*
X06221Y-04030D01*
X05984Y-05799D02*
X06051Y-05496D01*
X05781Y-05597D02*
X06170Y-05208D01*
X06305Y-05343D01*
X06320Y-05395D01*
X06319Y-05430D01*
X06299Y-05484D01*
X06243Y-05539D01*
X06189Y-05559D01*
X06153Y-05561D01*
X06102Y-05547D01*
X05967Y-05412D01*
X06470Y-05581D02*
X06505Y-05580D01*
X06558Y-05595D01*
X06642Y-05679D01*
X06657Y-05731D01*
X06655Y-05766D01*
X06636Y-05820D01*
X06598Y-05858D01*
X06526Y-05896D01*
X06101Y-05916D01*
X06320Y-06136D01*
X05784Y-06949D02*
X05851Y-06646D01*
X05581Y-06747D02*
X05970Y-06358D01*
X06105Y-06493D01*
X06120Y-06545D01*
X06119Y-06580D01*
X06099Y-06634D01*
X06043Y-06689D01*
X05989Y-06709D01*
X05953Y-06711D01*
X05902Y-06697D01*
X05767Y-06562D01*
X06290Y-06677D02*
X06509Y-06897D01*
X06243Y-06926D01*
X06294Y-06977D01*
X06309Y-07029D01*
X06307Y-07065D01*
X06287Y-07119D01*
X06194Y-07211D01*
X06141Y-07231D01*
X06105Y-07233D01*
X06053Y-07218D01*
X05952Y-07117D01*
X05937Y-07064D01*
X05938Y-07029D01*
X05984Y-08724D02*
X06051Y-08421D01*
X05781Y-08522D02*
X06170Y-08133D01*
X06305Y-08268D01*
X06320Y-08320D01*
X06319Y-08355D01*
X06299Y-08409D01*
X06243Y-08464D01*
X06189Y-08484D01*
X06153Y-08486D01*
X06102Y-08472D01*
X05967Y-08337D01*
X06546Y-08767D02*
X06286Y-09027D01*
X06610Y-08534D02*
X06248Y-08728D01*
X06467Y-08947D01*
X05734Y-11699D02*
X05801Y-11396D01*
X05531Y-11497D02*
X05920Y-11108D01*
X06055Y-11243D01*
X06070Y-11295D01*
X06069Y-11330D01*
X06049Y-11384D01*
X05993Y-11439D01*
X05939Y-11459D01*
X05903Y-11461D01*
X05852Y-11447D01*
X05717Y-11312D01*
X06442Y-11630D02*
X06274Y-11461D01*
X06072Y-11630D01*
X06108Y-11628D01*
X06160Y-11643D01*
X06244Y-11727D01*
X06259Y-11779D01*
X06257Y-11815D01*
X06237Y-11869D01*
X06144Y-11961D01*
X06091Y-11981D01*
X06055Y-11983D01*
X06003Y-11968D01*
X05919Y-11884D01*
X05904Y-11831D01*
X05905Y-11796D01*
X05959Y-13399D02*
X06026Y-13096D01*
X05756Y-13197D02*
X06145Y-12808D01*
X06280Y-12943D01*
X06295Y-12995D01*
X06294Y-13030D01*
X06274Y-13084D01*
X06218Y-13139D01*
X06164Y-13159D01*
X06128Y-13161D01*
X06077Y-13147D01*
X05942Y-13012D01*
X06650Y-13313D02*
X06583Y-13246D01*
X06531Y-13230D01*
X06496Y-13232D01*
X06406Y-13254D01*
X06316Y-13311D01*
X06167Y-13459D01*
X06147Y-13513D01*
X06146Y-13548D01*
X06160Y-13601D01*
X06228Y-13668D01*
X06280Y-13683D01*
X06316Y-13681D01*
X06369Y-13661D01*
X06462Y-13569D01*
X06482Y-13515D01*
X06484Y-13479D01*
X06469Y-13427D01*
X06401Y-13359D01*
X06350Y-13345D01*
X06314Y-13347D01*
X06260Y-13366D01*
X05959Y-14824D02*
X06026Y-14521D01*
X05756Y-14622D02*
X06145Y-14233D01*
X06280Y-14368D01*
X06295Y-14420D01*
X06294Y-14455D01*
X06274Y-14509D01*
X06218Y-14564D01*
X06164Y-14584D01*
X06128Y-14586D01*
X06077Y-14572D01*
X05942Y-14437D01*
X06465Y-14552D02*
X06701Y-14789D01*
X06160Y-15026D01*
X06434Y-16823D02*
X06501Y-16520D01*
X06231Y-16621D02*
X06620Y-16232D01*
X06755Y-16367D01*
X06770Y-16419D01*
X06769Y-16454D01*
X06749Y-16508D01*
X06693Y-16563D01*
X06639Y-16583D01*
X06603Y-16585D01*
X06552Y-16571D01*
X06417Y-16436D01*
X06858Y-16802D02*
X06843Y-16750D01*
X06844Y-16715D01*
X06864Y-16661D01*
X06883Y-16642D01*
X06937Y-16622D01*
X06972Y-16621D01*
X07024Y-16636D01*
X07092Y-16703D01*
X07107Y-16755D01*
X07105Y-16790D01*
X07086Y-16844D01*
X07066Y-16863D01*
X07013Y-16883D01*
X06977Y-16885D01*
X06926Y-16870D01*
X06858Y-16802D01*
X06806Y-16788D01*
X06770Y-16789D01*
X06716Y-16809D01*
X06642Y-16883D01*
X06622Y-16937D01*
X06621Y-16972D01*
X06635Y-17025D01*
X06703Y-17092D01*
X06755Y-17107D01*
X06791Y-17105D01*
X06844Y-17085D01*
X06919Y-17011D01*
X06938Y-16957D01*
X06940Y-16922D01*
X06926Y-16870D01*
X05717Y-10146D02*
X06000Y-09863D01*
X06067Y-09930D01*
X06094Y-09985D01*
X06094Y-10038D01*
X06081Y-10079D01*
X06041Y-10146D01*
X06000Y-10186D01*
X05932Y-10227D01*
X05892Y-10241D01*
X05838Y-10241D01*
X05784Y-10213D01*
X05717Y-10146D01*
X06148Y-10577D02*
X05986Y-10415D01*
X06067Y-10496D02*
X06350Y-10213D01*
X06282Y-10227D01*
X06229Y-10227D01*
X06188Y-10213D01*
X06606Y-10469D02*
X06633Y-10497D01*
X06647Y-10537D01*
X06647Y-10564D01*
X06633Y-10604D01*
X06593Y-10671D01*
X06525Y-10739D01*
X06458Y-10779D01*
X06418Y-10793D01*
X06391Y-10793D01*
X06350Y-10779D01*
X06323Y-10752D01*
X06309Y-10712D01*
X06309Y-10685D01*
X06323Y-10644D01*
X06363Y-10577D01*
X06431Y-10509D01*
X06498Y-10469D01*
X06538Y-10456D01*
X06565Y-10456D01*
X06606Y-10469D01*
X05767Y-17993D02*
X05824Y-18012D01*
X05920Y-18012D01*
X05958Y-17993D01*
X05977Y-17974D01*
X05996Y-17936D01*
X05996Y-17898D01*
X05977Y-17860D01*
X05958Y-17840D01*
X05920Y-17821D01*
X05843Y-17802D01*
X05805Y-17783D01*
X05786Y-17764D01*
X05767Y-17726D01*
X05767Y-17688D01*
X05786Y-17650D01*
X05805Y-17631D01*
X05843Y-17612D01*
X05939Y-17612D01*
X05996Y-17631D01*
X06129Y-17612D02*
X06224Y-18012D01*
X06301Y-17726D01*
X06377Y-18012D01*
X06472Y-17612D01*
X06834Y-18012D02*
X06605Y-18012D01*
X06719Y-18012D02*
X06719Y-17612D01*
X06681Y-17669D01*
X06643Y-17707D01*
X06605Y-17726D01*
G54D21*
X07621Y-01222D02*
X07321Y-01222D01*
X07321Y-01150D01*
X07336Y-01107D01*
X07364Y-01079D01*
X07393Y-01064D01*
X07450Y-01050D01*
X07493Y-01050D01*
X07550Y-01064D01*
X07579Y-01079D01*
X07607Y-01107D01*
X07621Y-01150D01*
X07621Y-01222D01*
X07621Y-00764D02*
X07621Y-00936D01*
X07621Y-00850D02*
X07321Y-00850D01*
X07364Y-00879D01*
X07393Y-00907D01*
X07407Y-00936D01*
X07621Y-03722D02*
X07321Y-03722D01*
X07321Y-03650D01*
X07336Y-03607D01*
X07364Y-03579D01*
X07393Y-03564D01*
X07450Y-03550D01*
X07493Y-03550D01*
X07550Y-03564D01*
X07579Y-03579D01*
X07607Y-03607D01*
X07621Y-03650D01*
X07621Y-03722D01*
X07350Y-03436D02*
X07336Y-03422D01*
X07321Y-03393D01*
X07321Y-03322D01*
X07336Y-03293D01*
X07350Y-03279D01*
X07379Y-03264D01*
X07407Y-03264D01*
X07450Y-03279D01*
X07621Y-03450D01*
X07621Y-03264D01*
X07896Y-05097D02*
X07596Y-05097D01*
X07596Y-05025D01*
X07611Y-04982D01*
X07639Y-04954D01*
X07668Y-04939D01*
X07725Y-04925D01*
X07768Y-04925D01*
X07825Y-04939D01*
X07854Y-04954D01*
X07882Y-04982D01*
X07896Y-05025D01*
X07896Y-05097D01*
X07596Y-04825D02*
X07596Y-04639D01*
X07711Y-04739D01*
X07711Y-04697D01*
X07725Y-04668D01*
X07739Y-04654D01*
X07768Y-04639D01*
X07839Y-04639D01*
X07868Y-04654D01*
X07882Y-04668D01*
X07896Y-04697D01*
X07896Y-04782D01*
X07882Y-04811D01*
X07868Y-04825D01*
X07771Y-07947D02*
X07471Y-07947D01*
X07471Y-07875D01*
X07486Y-07832D01*
X07514Y-07804D01*
X07543Y-07789D01*
X07600Y-07775D01*
X07643Y-07775D01*
X07700Y-07789D01*
X07729Y-07804D01*
X07757Y-07832D01*
X07771Y-07875D01*
X07771Y-07947D01*
X07571Y-07518D02*
X07771Y-07518D01*
X07457Y-07589D02*
X07671Y-07661D01*
X07671Y-07475D01*
X07696Y-10897D02*
X07396Y-10897D01*
X07396Y-10825D01*
X07411Y-10782D01*
X07439Y-10754D01*
X07468Y-10739D01*
X07525Y-10725D01*
X07568Y-10725D01*
X07625Y-10739D01*
X07654Y-10754D01*
X07682Y-10782D01*
X07696Y-10825D01*
X07696Y-10897D01*
X07396Y-10454D02*
X07396Y-10597D01*
X07539Y-10611D01*
X07525Y-10597D01*
X07511Y-10568D01*
X07511Y-10497D01*
X07525Y-10468D01*
X07539Y-10454D01*
X07568Y-10439D01*
X07639Y-10439D01*
X07668Y-10454D01*
X07682Y-10468D01*
X07696Y-10497D01*
X07696Y-10568D01*
X07682Y-10597D01*
X07668Y-10611D01*
X07896Y-12672D02*
X07596Y-12672D01*
X07596Y-12600D01*
X07611Y-12557D01*
X07639Y-12529D01*
X07668Y-12514D01*
X07725Y-12500D01*
X07768Y-12500D01*
X07825Y-12514D01*
X07854Y-12529D01*
X07882Y-12557D01*
X07896Y-12600D01*
X07896Y-12672D01*
X07596Y-12243D02*
X07596Y-12300D01*
X07611Y-12329D01*
X07625Y-12343D01*
X07668Y-12372D01*
X07725Y-12386D01*
X07839Y-12386D01*
X07868Y-12372D01*
X07882Y-12357D01*
X07896Y-12329D01*
X07896Y-12272D01*
X07882Y-12243D01*
X07868Y-12229D01*
X07839Y-12214D01*
X07768Y-12214D01*
X07739Y-12229D01*
X07725Y-12243D01*
X07711Y-12272D01*
X07711Y-12329D01*
X07725Y-12357D01*
X07739Y-12372D01*
X07768Y-12386D01*
X08271Y-14847D02*
X07971Y-14847D01*
X07971Y-14775D01*
X07986Y-14732D01*
X08014Y-14704D01*
X08043Y-14689D01*
X08100Y-14675D01*
X08143Y-14675D01*
X08200Y-14689D01*
X08229Y-14704D01*
X08257Y-14732D01*
X08271Y-14775D01*
X08271Y-14847D01*
X07971Y-14575D02*
X07971Y-14375D01*
X08271Y-14504D01*
X07621Y-18722D02*
X07321Y-18722D01*
X07321Y-18650D01*
X07336Y-18607D01*
X07364Y-18579D01*
X07393Y-18564D01*
X07450Y-18550D01*
X07493Y-18550D01*
X07550Y-18564D01*
X07579Y-18579D01*
X07607Y-18607D01*
X07621Y-18650D01*
X07621Y-18722D01*
X07450Y-18379D02*
X07436Y-18407D01*
X07421Y-18422D01*
X07393Y-18436D01*
X07379Y-18436D01*
X07350Y-18422D01*
X07336Y-18407D01*
X07321Y-18379D01*
X07321Y-18322D01*
X07336Y-18293D01*
X07350Y-18279D01*
X07379Y-18264D01*
X07393Y-18264D01*
X07421Y-18279D01*
X07436Y-18293D01*
X07450Y-18322D01*
X07450Y-18379D01*
X07464Y-18407D01*
X07479Y-18422D01*
X07507Y-18436D01*
X07564Y-18436D01*
X07593Y-18422D01*
X07607Y-18407D01*
X07621Y-18379D01*
X07621Y-18322D01*
X07607Y-18293D01*
X07593Y-18279D01*
X07564Y-18264D01*
X07507Y-18264D01*
X07479Y-18279D01*
X07464Y-18293D01*
X07450Y-18322D01*
M02*
