G04 (created by PCBNEW-RS274X (2011-05-25)-stable) date Wed 29 Aug 2012 05:18:07 PM CDT*
G01*
G70*
G90*
%MOIN*%
G04 Gerber Fmt 3.4, Leading zero omitted, Abs format*
%FSLAX34Y34*%
G04 APERTURE LIST*
%ADD10C,0.006000*%
%ADD11R,0.055000X0.055000*%
%ADD12C,0.055000*%
%ADD13C,0.066000*%
%ADD14R,0.056000X0.056000*%
%ADD15C,0.056000*%
%ADD16R,0.070000X0.200000*%
%ADD17R,0.090000X0.062000*%
%ADD18O,0.090000X0.062000*%
%ADD19C,0.060000*%
%ADD20C,0.035000*%
%ADD21C,0.019700*%
%ADD22C,0.015000*%
G04 APERTURE END LIST*
G54D10*
G54D11*
X00700Y-18800D03*
G54D12*
X00700Y-17800D03*
X00700Y-16800D03*
G54D11*
X03000Y-17000D03*
G54D12*
X02000Y-17000D03*
G54D13*
X09000Y-19000D03*
X09000Y-18000D03*
X09000Y-16500D03*
X09000Y-15500D03*
X09000Y-14000D03*
X09000Y-13000D03*
X09000Y-11500D03*
X09000Y-10500D03*
X09000Y-09000D03*
X09000Y-08000D03*
X09000Y-06500D03*
X09000Y-05500D03*
X09000Y-04000D03*
X09000Y-03000D03*
X09000Y-01500D03*
X09000Y-00500D03*
G54D14*
X02250Y-06250D03*
G54D15*
X02250Y-09250D03*
G54D10*
G36*
X05835Y-08239D02*
X05439Y-08635D01*
X05043Y-08239D01*
X05439Y-07843D01*
X05835Y-08239D01*
X05835Y-08239D01*
G37*
G54D15*
X07561Y-10361D03*
G54D14*
X02250Y-10500D03*
G54D15*
X02250Y-13500D03*
G54D16*
X01850Y-01000D03*
X02950Y-01000D03*
X04050Y-01000D03*
X05150Y-01000D03*
G54D17*
X00750Y-04750D03*
G54D18*
X00750Y-05750D03*
X00750Y-06750D03*
X00750Y-07750D03*
X00750Y-08750D03*
X00750Y-09750D03*
X00750Y-10750D03*
X00750Y-11750D03*
X00750Y-12750D03*
X00750Y-13750D03*
X03750Y-13750D03*
X03750Y-12750D03*
X03750Y-11750D03*
X03750Y-10750D03*
X03750Y-09750D03*
X03750Y-08750D03*
X03750Y-07750D03*
X03750Y-06750D03*
X03750Y-05750D03*
X03750Y-04750D03*
G54D19*
X07000Y-02750D03*
X03000Y-02750D03*
X07414Y-03586D03*
X04586Y-06414D03*
X07647Y-06888D03*
X05353Y-03612D03*
X07664Y-04836D03*
X04836Y-07664D03*
X07347Y-08338D03*
X05053Y-05062D03*
X07614Y-11814D03*
X04786Y-08986D03*
X07614Y-13314D03*
X04786Y-10486D03*
X06700Y-18100D03*
X06700Y-14100D03*
X05600Y-16900D03*
X05600Y-12900D03*
X04750Y-15750D03*
X00750Y-15750D03*
X00500Y-03750D03*
X04500Y-03750D03*
G54D12*
X05481Y-18900D03*
X04300Y-18900D03*
X03119Y-18900D03*
X01938Y-18900D03*
X06662Y-18900D03*
G54D20*
X05000Y-04300D03*
X03300Y-04000D03*
X02200Y-04500D03*
X00700Y-02700D03*
X02400Y-16300D03*
G54D21*
X04050Y-01000D02*
X04050Y-02350D01*
X03150Y-06750D02*
X03750Y-06750D01*
X02900Y-06500D02*
X03150Y-06750D01*
X02900Y-05800D02*
X02900Y-06500D01*
X02700Y-05600D02*
X02900Y-05800D01*
X02700Y-04400D02*
X02700Y-05600D01*
X02500Y-04200D02*
X02700Y-04400D01*
X02500Y-03800D02*
X02500Y-04200D01*
X02800Y-03500D02*
X02500Y-03800D01*
X03200Y-03500D02*
X02800Y-03500D01*
X03700Y-03000D02*
X03200Y-03500D01*
X03700Y-02700D02*
X03700Y-03000D01*
X04050Y-02350D02*
X03700Y-02700D01*
X03750Y-06750D02*
X04250Y-06750D01*
X04250Y-06750D02*
X04586Y-06414D01*
X05439Y-08239D02*
X05439Y-05961D01*
X06000Y-04259D02*
X05353Y-03612D01*
X06000Y-05400D02*
X06000Y-04259D01*
X05439Y-05961D02*
X06000Y-05400D01*
X05439Y-08239D02*
X05439Y-11961D01*
X04750Y-12650D02*
X04750Y-15750D01*
X05439Y-11961D02*
X04750Y-12650D01*
X05439Y-03698D02*
X05353Y-03612D01*
X03750Y-07750D02*
X04400Y-08400D01*
X05278Y-08400D02*
X05439Y-08239D01*
X04400Y-08400D02*
X05278Y-08400D01*
X03100Y-16000D02*
X03800Y-16000D01*
X04700Y-16900D02*
X05600Y-16900D01*
X03800Y-16000D02*
X04700Y-16900D01*
X03100Y-09600D02*
X03100Y-16000D01*
X03100Y-16000D02*
X03100Y-16100D01*
X03100Y-16100D02*
X03200Y-16000D01*
G54D22*
X01800Y-08400D02*
X01800Y-09176D01*
G54D21*
X03100Y-09600D02*
X03100Y-09600D01*
X03100Y-09600D02*
X02300Y-08300D01*
X02300Y-08300D02*
X01800Y-08300D01*
X01800Y-08300D02*
X01800Y-08400D01*
G54D22*
X01776Y-10026D02*
X02250Y-10500D01*
X01776Y-09200D02*
X01776Y-10026D01*
X01800Y-09176D02*
X01776Y-09200D01*
G54D21*
X09000Y-10500D02*
X08700Y-10500D01*
X08300Y-12300D02*
X09000Y-13000D01*
X08300Y-10900D02*
X08300Y-12300D01*
X08700Y-10500D02*
X08300Y-10900D01*
X07561Y-10361D02*
X08861Y-10361D01*
X08861Y-10361D02*
X09000Y-10500D01*
X02000Y-17000D02*
X02000Y-13750D01*
X02000Y-13750D02*
X02250Y-13500D01*
X02200Y-11600D02*
X02200Y-13450D01*
X02200Y-13450D02*
X02250Y-13500D01*
X02250Y-09250D02*
X02250Y-09350D01*
X02400Y-11600D02*
X02200Y-11600D01*
X02800Y-11200D02*
X02400Y-11600D01*
X02800Y-09900D02*
X02800Y-11200D01*
X02250Y-09350D02*
X02800Y-09900D01*
X09000Y-18000D02*
X08800Y-18000D01*
X08800Y-18000D02*
X08100Y-17300D01*
X08100Y-17300D02*
X08100Y-16400D01*
X08100Y-16400D02*
X09000Y-15500D01*
X09000Y-05500D02*
X09000Y-05700D01*
X08400Y-07400D02*
X09000Y-08000D01*
X08400Y-06300D02*
X08400Y-07400D01*
X09000Y-05700D02*
X08400Y-06300D01*
X09000Y-00500D02*
X08500Y-00500D01*
X07750Y-01750D02*
X09000Y-03000D01*
X07750Y-01250D02*
X07750Y-01750D01*
X08500Y-00500D02*
X07750Y-01250D01*
X09000Y-04000D02*
X07828Y-04000D01*
X07828Y-04000D02*
X07414Y-03586D01*
X07664Y-04836D02*
X07664Y-05936D01*
X08300Y-08300D02*
X09000Y-09000D01*
X07900Y-07900D02*
X08300Y-08300D01*
X07700Y-07900D02*
X07900Y-07900D01*
X06900Y-07100D02*
X07700Y-07900D01*
X06900Y-06700D02*
X06900Y-07100D01*
X07664Y-05936D02*
X06900Y-06700D01*
X02950Y-01000D02*
X02950Y-01750D01*
X04200Y-04300D02*
X05000Y-04300D01*
X04000Y-04100D02*
X04200Y-04300D01*
X03400Y-04100D02*
X04000Y-04100D01*
X03300Y-04000D02*
X03400Y-04100D01*
X02100Y-04400D02*
X02200Y-04500D01*
X02100Y-02600D02*
X02100Y-04400D01*
X02950Y-01750D02*
X02100Y-02600D01*
X06700Y-18100D02*
X08100Y-18100D01*
X08100Y-18100D02*
X09000Y-19000D01*
X07614Y-11814D02*
X07614Y-12314D01*
X08200Y-13200D02*
X09000Y-14000D01*
X08200Y-12900D02*
X08200Y-13200D01*
X07614Y-12314D02*
X08200Y-12900D01*
X04786Y-08986D02*
X04786Y-09714D01*
X04786Y-09714D02*
X03750Y-10750D01*
X04786Y-10486D02*
X04786Y-10714D01*
X04786Y-10714D02*
X03750Y-11750D01*
X01500Y-15000D02*
X00750Y-15750D01*
X00700Y-02700D02*
X00800Y-02800D01*
X00800Y-02800D02*
X01500Y-02800D01*
X01500Y-02800D02*
X01500Y-15000D01*
X02500Y-18281D02*
X03119Y-18900D01*
X02500Y-16400D02*
X02500Y-18281D01*
X02400Y-16300D02*
X02500Y-16400D01*
X04300Y-18900D02*
X04300Y-17700D01*
X03600Y-17000D02*
X03000Y-17000D01*
X04300Y-17700D02*
X03600Y-17000D01*
M02*
