G04 (created by PCBNEW-RS274X (2011-05-25)-stable) date Sun 14 Oct 2012 07:15:22 PM CDT*
G01*
G70*
G90*
%MOIN*%
G04 Gerber Fmt 3.4, Leading zero omitted, Abs format*
%FSLAX34Y34*%
G04 APERTURE LIST*
%ADD10C,0.006000*%
%ADD11R,0.055000X0.055000*%
%ADD12C,0.055000*%
%ADD13R,0.070000X0.200000*%
%ADD14R,0.090000X0.062000*%
%ADD15O,0.090000X0.062000*%
%ADD16C,0.060000*%
%ADD17R,0.060000X0.060000*%
%ADD18C,0.088600*%
%ADD19C,0.066000*%
%ADD20C,0.020000*%
%ADD21C,0.015000*%
%ADD22C,0.019700*%
G04 APERTURE END LIST*
G54D10*
G54D11*
X00700Y-18800D03*
G54D12*
X00700Y-17800D03*
X00700Y-16800D03*
G54D11*
X03000Y-17000D03*
G54D12*
X02000Y-17000D03*
G54D13*
X01850Y-01000D03*
X02950Y-01000D03*
X04050Y-01000D03*
X05150Y-01000D03*
G54D14*
X00750Y-04750D03*
G54D15*
X00750Y-05750D03*
X00750Y-06750D03*
X00750Y-07750D03*
X00750Y-08750D03*
X00750Y-09750D03*
X00750Y-10750D03*
X00750Y-11750D03*
X00750Y-12750D03*
X00750Y-13750D03*
X03750Y-13750D03*
X03750Y-12750D03*
X03750Y-11750D03*
X03750Y-10750D03*
X03750Y-09750D03*
X03750Y-08750D03*
X03750Y-07750D03*
X03750Y-06750D03*
X03750Y-05750D03*
X03750Y-04750D03*
G54D16*
X07439Y-05489D03*
X04611Y-02661D03*
X07614Y-07114D03*
X04786Y-04286D03*
X07414Y-08264D03*
X04586Y-05436D03*
X07614Y-10039D03*
X04786Y-07211D03*
X07364Y-13014D03*
X04536Y-10186D03*
X07589Y-14714D03*
X04761Y-11886D03*
X07589Y-16139D03*
X04761Y-13311D03*
X07564Y-17589D03*
X04736Y-14761D03*
X05900Y-12200D03*
X05900Y-16200D03*
X04750Y-15750D03*
X00750Y-15750D03*
X00375Y-03650D03*
X04375Y-03650D03*
G54D17*
X02250Y-14600D03*
G54D16*
X02250Y-10600D03*
G54D10*
G36*
X05185Y-08961D02*
X04761Y-09385D01*
X04337Y-08961D01*
X04761Y-08537D01*
X05185Y-08961D01*
X05185Y-08961D01*
G37*
G54D16*
X07589Y-11789D03*
G54D17*
X02250Y-05750D03*
G54D16*
X02250Y-09750D03*
G54D12*
X03219Y-18600D03*
X04400Y-18600D03*
X05581Y-18600D03*
G54D18*
X06762Y-18600D03*
X02038Y-18600D03*
G54D19*
X09000Y-01500D03*
X09000Y-00500D03*
X09000Y-04000D03*
X09000Y-03000D03*
X09000Y-06500D03*
X09000Y-05500D03*
X09000Y-09000D03*
X09000Y-08000D03*
X09000Y-11500D03*
X09000Y-10500D03*
X09000Y-14000D03*
X09000Y-13000D03*
X09000Y-16500D03*
X09000Y-15500D03*
X09000Y-19000D03*
X09000Y-18000D03*
G54D20*
X04050Y-01000D02*
X04050Y-03075D01*
X04261Y-04286D02*
X04786Y-04286D01*
X03825Y-03850D02*
X04261Y-04286D01*
X03825Y-03300D02*
X03825Y-03850D01*
X04050Y-03075D02*
X03825Y-03300D01*
X03750Y-06750D02*
X04325Y-06750D01*
X05350Y-04850D02*
X04786Y-04286D01*
X05350Y-05725D02*
X05350Y-04850D01*
X04325Y-06750D02*
X05350Y-05725D01*
G54D21*
X02250Y-14600D02*
X02975Y-14600D01*
X05900Y-14675D02*
X05900Y-12200D01*
X05325Y-15250D02*
X05900Y-14675D01*
X03625Y-15250D02*
X05325Y-15250D01*
X02975Y-14600D02*
X03625Y-15250D01*
X03750Y-05750D02*
X02250Y-05750D01*
X02250Y-10600D02*
X02250Y-10800D01*
X07050Y-11250D02*
X07589Y-11789D01*
X02700Y-11250D02*
X07050Y-11250D01*
X02250Y-10800D02*
X02700Y-11250D01*
G54D20*
X09000Y-05500D02*
X08900Y-05500D01*
X08175Y-03825D02*
X09000Y-03000D01*
X08175Y-04775D02*
X08175Y-03825D01*
X08900Y-05500D02*
X08175Y-04775D01*
X09000Y-08000D02*
X08975Y-08000D01*
X08300Y-06200D02*
X09000Y-05500D01*
X08300Y-07325D02*
X08300Y-06200D01*
X08975Y-08000D02*
X08300Y-07325D01*
X09000Y-10500D02*
X09000Y-10225D01*
X08125Y-08875D02*
X09000Y-08000D01*
X08125Y-09350D02*
X08125Y-08875D01*
X09000Y-10225D02*
X08125Y-09350D01*
X07589Y-11789D02*
X07789Y-11789D01*
X07789Y-11789D02*
X09000Y-13000D01*
X09000Y-10500D02*
X08875Y-10500D01*
X08875Y-10500D02*
X07589Y-11786D01*
X07589Y-11786D02*
X07589Y-11789D01*
X09000Y-15500D02*
X08300Y-14800D01*
X08300Y-14800D02*
X08300Y-13600D01*
X08300Y-13600D02*
X08900Y-13000D01*
X08900Y-13000D02*
X09000Y-13000D01*
G54D21*
X00700Y-17800D02*
X00600Y-17800D01*
X00750Y-14850D02*
X00750Y-13750D01*
X00200Y-15400D02*
X00750Y-14850D01*
X00200Y-17400D02*
X00200Y-15400D01*
X00600Y-17800D02*
X00200Y-17400D01*
X02000Y-17000D02*
X02000Y-16350D01*
X02000Y-16350D02*
X01727Y-16077D01*
X01727Y-16077D02*
X01727Y-13023D01*
X01727Y-13023D02*
X02200Y-12550D01*
X02200Y-12550D02*
X02200Y-10650D01*
X02200Y-10650D02*
X02250Y-10600D01*
G54D22*
X09000Y-18000D02*
X08800Y-18000D01*
X08100Y-16400D02*
X09000Y-15500D01*
X08100Y-17300D02*
X08100Y-16400D01*
X08800Y-18000D02*
X08100Y-17300D01*
X09000Y-00500D02*
X08500Y-00500D01*
X08500Y-00500D02*
X07750Y-01250D01*
X07750Y-01250D02*
X07750Y-01750D01*
X07750Y-01750D02*
X09000Y-03000D01*
G54D20*
X01450Y-09600D02*
X01450Y-04200D01*
G54D21*
X01600Y-11350D02*
X01450Y-11200D01*
X01450Y-11200D02*
X01450Y-09600D01*
G54D20*
X05900Y-16200D02*
X05450Y-16200D01*
X01450Y-12900D02*
X01600Y-12750D01*
X01450Y-17300D02*
X01450Y-12900D01*
X01650Y-17500D02*
X01450Y-17300D01*
X02250Y-17500D02*
X01650Y-17500D01*
X02500Y-17250D02*
X02250Y-17500D01*
X02500Y-16350D02*
X02500Y-17250D01*
X02700Y-16150D02*
X02500Y-16350D01*
X03700Y-16150D02*
X02700Y-16150D01*
X04050Y-16500D02*
X03700Y-16150D01*
X05150Y-16500D02*
X04050Y-16500D01*
X05450Y-16200D02*
X05150Y-16500D01*
G54D21*
X01600Y-12750D02*
X01600Y-11350D01*
G54D20*
X02950Y-02700D02*
X02950Y-01000D01*
X01450Y-04200D02*
X02950Y-02700D01*
X04736Y-14761D02*
X04461Y-14761D01*
X02900Y-13600D02*
X03750Y-12750D01*
X02900Y-13950D02*
X02900Y-13600D01*
X03350Y-14400D02*
X02900Y-13950D01*
X04100Y-14400D02*
X03350Y-14400D01*
X04461Y-14761D02*
X04100Y-14400D01*
X03750Y-08750D02*
X04075Y-08750D01*
X04786Y-08039D02*
X04786Y-07211D01*
X04075Y-08750D02*
X04786Y-08039D01*
G54D21*
X04400Y-18600D02*
X03600Y-17800D01*
G54D20*
X03600Y-17800D02*
X03000Y-17800D01*
X03000Y-17800D02*
X03000Y-17000D01*
G54D22*
X00700Y-18800D02*
X00800Y-18800D01*
X01800Y-17800D02*
X03000Y-17800D01*
X00800Y-18800D02*
X01800Y-17800D01*
M02*
