M48
INCH,TZ
T1C0.032
T2C0.035
T3C0.059
%
G90
G05
T1
X375Y-3650
X700Y-16800
X700Y-17800
X700Y-18800
X750Y-4750
X750Y-5750
X750Y-6750
X750Y-7750
X750Y-8750
X750Y-9750
X750Y-10750
X750Y-11750
X750Y-12750
X750Y-13750
X750Y-15750
X2000Y-17000
X3000Y-17000
X3219Y-18600
X3750Y-4750
X3750Y-5750
X3750Y-6750
X3750Y-7750
X3750Y-8750
X3750Y-9750
X3750Y-10750
X3750Y-11750
X3750Y-12750
X3750Y-13750
X4375Y-3650
X4400Y-18600
X4536Y-10186
X4586Y-5436
X4611Y-2661
X4736Y-14761
X4750Y-15750
X4761Y-11886
X4761Y-13311
X4786Y-4286
X4786Y-7211
X5581Y-18600
X5900Y-12200
X5900Y-16200
X7364Y-13014
X7414Y-8264
X7439Y-5489
X7564Y-17589
X7589Y-14714
X7589Y-16139
X7614Y-7114
X7614Y-10039
X9000Y-500
X9000Y-1500
X9000Y-3000
X9000Y-4000
X9000Y-5500
X9000Y-6500
X9000Y-8000
X9000Y-9000
X9000Y-10500
X9000Y-11500
X9000Y-13000
X9000Y-14000
X9000Y-15500
X9000Y-16500
X9000Y-18000
X9000Y-19000
T2
X2250Y-5750
X2250Y-9750
X2250Y-10600
X2250Y-14600
X4761Y-8961
X7589Y-11789
T3
X2038Y-18600
X6762Y-18600
T0
M30
