M48
INCH,LZ
T1C0.024
T2C0.025
T3C0.032
%
G90
G05
T1
X00225Y-00625
X00225Y-00925
X00225Y-0105
X00225Y-0135
X005439Y-008239
X007561Y-010361
X01225Y-00625
X01225Y-00925
X01225Y-0105
X01225Y-0135
X015439Y-008239
X017561Y-010361
T2
X0007Y-0027
X0022Y-0045
X0033Y-004
X005Y-0043
X0107Y-0027
X0122Y-0045
X0133Y-004
X015Y-0043
T3
X0005Y-00375
X0007Y-0168
X0007Y-0178
X0007Y-0188
X00075Y-00475
X00075Y-00575
X00075Y-00675
X00075Y-00775
X00075Y-00875
X00075Y-00975
X00075Y-01075
X00075Y-01175
X00075Y-01275
X00075Y-01375
X00075Y-01575
X002Y-017
X002038Y-0185
X003Y-00275
X003Y-017
X003219Y-0185
X00375Y-00475
X00375Y-00575
X00375Y-00675
X00375Y-00775
X00375Y-00875
X00375Y-00975
X00375Y-01075
X00375Y-01175
X00375Y-01275
X00375Y-01375
X0044Y-0185
X0045Y-00375
X004586Y-006414
X00475Y-01575
X004786Y-008986
X004786Y-010486
X004836Y-007664
X005053Y-005062
X005353Y-003612
X005581Y-0185
X0056Y-0129
X0056Y-0169
X0066Y-0136
X0066Y-0176
X006762Y-0185
X007Y-00275
X007347Y-008338
X007414Y-003586
X007614Y-011814
X007614Y-013314
X007647Y-006888
X007664Y-004836
X009Y-0005
X009Y-0015
X009Y-003
X009Y-004
X009Y-0055
X009Y-0065
X009Y-008
X009Y-009
X009Y-0105
X009Y-0115
X009Y-013
X009Y-014
X009Y-0155
X009Y-0165
X009Y-018
X009Y-019
X0105Y-00375
X0107Y-0168
X0107Y-0178
X0107Y-0188
X01075Y-00475
X01075Y-00575
X01075Y-00675
X01075Y-00775
X01075Y-00875
X01075Y-00975
X01075Y-01075
X01075Y-01175
X01075Y-01275
X01075Y-01375
X01075Y-01575
X012Y-017
X012038Y-0185
X013Y-00275
X013Y-017
X013219Y-0185
X01375Y-00475
X01375Y-00575
X01375Y-00675
X01375Y-00775
X01375Y-00875
X01375Y-00975
X01375Y-01075
X01375Y-01175
X01375Y-01275
X01375Y-01375
X0144Y-0185
X0145Y-00375
X014586Y-006414
X01475Y-01575
X014786Y-008986
X014786Y-010486
X014836Y-007664
X015053Y-005062
X015353Y-003612
X015581Y-0185
X0156Y-0129
X0156Y-0169
X0166Y-0136
X0166Y-0176
X016762Y-0185
X017Y-00275
X017347Y-008338
X017414Y-003586
X017614Y-011814
X017614Y-013314
X017647Y-006888
X017664Y-004836
X019Y-0005
X019Y-0015
X019Y-003
X019Y-004
X019Y-0055
X019Y-0065
X019Y-008
X019Y-009
X019Y-0105
X019Y-0115
X019Y-013
X019Y-014
X019Y-0155
X019Y-0165
X019Y-018
X019Y-019
T0
M30
