G04 (created by PCBNEW-RS274X (2011-05-25)-stable) date Fri 31 Aug 2012 09:10:07 AM CDT*
G01*
G70*
G90*
%MOIN*%
G04 Gerber Fmt 3.4, Leading zero omitted, Abs format*
%FSLAX34Y34*%
G04 APERTURE LIST*
%ADD10C,0.006000*%
%ADD11C,0.055000*%
%ADD12C,0.060000*%
%ADD13R,0.090000X0.062000*%
%ADD14O,0.090000X0.062000*%
%ADD15R,0.070000X0.200000*%
%ADD16R,0.056000X0.056000*%
%ADD17C,0.056000*%
%ADD18C,0.066000*%
%ADD19R,0.055000X0.055000*%
%ADD20C,0.035000*%
%ADD21C,0.019700*%
%ADD22C,0.015000*%
G04 APERTURE END LIST*
G54D10*
G54D11*
X15581Y-18500D03*
X14400Y-18500D03*
X13219Y-18500D03*
X12038Y-18500D03*
X16762Y-18500D03*
G54D12*
X10500Y-03750D03*
X14500Y-03750D03*
X14750Y-15750D03*
X10750Y-15750D03*
X15600Y-16900D03*
X15600Y-12900D03*
X16600Y-17600D03*
X16600Y-13600D03*
X17614Y-13314D03*
X14786Y-10486D03*
X17614Y-11814D03*
X14786Y-08986D03*
X17347Y-08338D03*
X15053Y-05062D03*
X17664Y-04836D03*
X14836Y-07664D03*
X17647Y-06888D03*
X15353Y-03612D03*
X17414Y-03586D03*
X14586Y-06414D03*
X17000Y-02750D03*
X13000Y-02750D03*
G54D13*
X10750Y-04750D03*
G54D14*
X10750Y-05750D03*
X10750Y-06750D03*
X10750Y-07750D03*
X10750Y-08750D03*
X10750Y-09750D03*
X10750Y-10750D03*
X10750Y-11750D03*
X10750Y-12750D03*
X10750Y-13750D03*
X13750Y-13750D03*
X13750Y-12750D03*
X13750Y-11750D03*
X13750Y-10750D03*
X13750Y-09750D03*
X13750Y-08750D03*
X13750Y-07750D03*
X13750Y-06750D03*
X13750Y-05750D03*
X13750Y-04750D03*
G54D15*
X11850Y-01000D03*
X12950Y-01000D03*
X14050Y-01000D03*
X15150Y-01000D03*
G54D16*
X12250Y-10500D03*
G54D17*
X12250Y-13500D03*
G54D10*
G36*
X15835Y-08239D02*
X15439Y-08635D01*
X15043Y-08239D01*
X15439Y-07843D01*
X15835Y-08239D01*
X15835Y-08239D01*
G37*
G54D17*
X17561Y-10361D03*
G54D16*
X12250Y-06250D03*
G54D17*
X12250Y-09250D03*
G54D18*
X19000Y-01500D03*
X19000Y-00500D03*
X19000Y-04000D03*
X19000Y-03000D03*
X19000Y-06500D03*
X19000Y-05500D03*
X19000Y-09000D03*
X19000Y-08000D03*
X19000Y-11500D03*
X19000Y-10500D03*
X19000Y-14000D03*
X19000Y-13000D03*
X19000Y-16500D03*
X19000Y-15500D03*
X19000Y-19000D03*
X19000Y-18000D03*
G54D19*
X13000Y-17000D03*
G54D11*
X12000Y-17000D03*
G54D19*
X10700Y-18800D03*
G54D11*
X10700Y-17800D03*
X10700Y-16800D03*
G54D19*
X00700Y-18800D03*
G54D11*
X00700Y-17800D03*
X00700Y-16800D03*
G54D19*
X03000Y-17000D03*
G54D11*
X02000Y-17000D03*
G54D18*
X09000Y-19000D03*
X09000Y-18000D03*
X09000Y-16500D03*
X09000Y-15500D03*
X09000Y-14000D03*
X09000Y-13000D03*
X09000Y-11500D03*
X09000Y-10500D03*
X09000Y-09000D03*
X09000Y-08000D03*
X09000Y-06500D03*
X09000Y-05500D03*
X09000Y-04000D03*
X09000Y-03000D03*
X09000Y-01500D03*
X09000Y-00500D03*
G54D16*
X02250Y-06250D03*
G54D17*
X02250Y-09250D03*
G54D10*
G36*
X05835Y-08239D02*
X05439Y-08635D01*
X05043Y-08239D01*
X05439Y-07843D01*
X05835Y-08239D01*
X05835Y-08239D01*
G37*
G54D17*
X07561Y-10361D03*
G54D16*
X02250Y-10500D03*
G54D17*
X02250Y-13500D03*
G54D15*
X01850Y-01000D03*
X02950Y-01000D03*
X04050Y-01000D03*
X05150Y-01000D03*
G54D13*
X00750Y-04750D03*
G54D14*
X00750Y-05750D03*
X00750Y-06750D03*
X00750Y-07750D03*
X00750Y-08750D03*
X00750Y-09750D03*
X00750Y-10750D03*
X00750Y-11750D03*
X00750Y-12750D03*
X00750Y-13750D03*
X03750Y-13750D03*
X03750Y-12750D03*
X03750Y-11750D03*
X03750Y-10750D03*
X03750Y-09750D03*
X03750Y-08750D03*
X03750Y-07750D03*
X03750Y-06750D03*
X03750Y-05750D03*
X03750Y-04750D03*
G54D12*
X07000Y-02750D03*
X03000Y-02750D03*
X07414Y-03586D03*
X04586Y-06414D03*
X07647Y-06888D03*
X05353Y-03612D03*
X07664Y-04836D03*
X04836Y-07664D03*
X07347Y-08338D03*
X05053Y-05062D03*
X07614Y-11814D03*
X04786Y-08986D03*
X07614Y-13314D03*
X04786Y-10486D03*
X06600Y-17600D03*
X06600Y-13600D03*
X05600Y-16900D03*
X05600Y-12900D03*
X04750Y-15750D03*
X00750Y-15750D03*
X00500Y-03750D03*
X04500Y-03750D03*
G54D11*
X05581Y-18500D03*
X04400Y-18500D03*
X03219Y-18500D03*
X02038Y-18500D03*
X06762Y-18500D03*
G54D20*
X12200Y-04500D03*
X13300Y-04000D03*
X15000Y-04300D03*
X05000Y-04300D03*
X03300Y-04000D03*
X02200Y-04500D03*
X10700Y-02700D03*
X00700Y-02700D03*
G54D21*
X14250Y-06750D02*
X14586Y-06414D01*
X13750Y-06750D02*
X14250Y-06750D01*
X14050Y-02350D02*
X13700Y-02700D01*
X13700Y-02700D02*
X13700Y-03000D01*
X13700Y-03000D02*
X13200Y-03500D01*
X13200Y-03500D02*
X12800Y-03500D01*
X12800Y-03500D02*
X12500Y-03800D01*
X12500Y-03800D02*
X12500Y-04200D01*
X12500Y-04200D02*
X12700Y-04400D01*
X12700Y-04400D02*
X12700Y-05600D01*
X12700Y-05600D02*
X12900Y-05800D01*
X12900Y-05800D02*
X12900Y-06500D01*
X12900Y-06500D02*
X13150Y-06750D01*
X13150Y-06750D02*
X13750Y-06750D01*
X14050Y-01000D02*
X14050Y-02350D01*
X04050Y-01000D02*
X04050Y-02350D01*
X03150Y-06750D02*
X03750Y-06750D01*
X02900Y-06500D02*
X03150Y-06750D01*
X02900Y-05800D02*
X02900Y-06500D01*
X02700Y-05600D02*
X02900Y-05800D01*
X02700Y-04400D02*
X02700Y-05600D01*
X02500Y-04200D02*
X02700Y-04400D01*
X02500Y-03800D02*
X02500Y-04200D01*
X02800Y-03500D02*
X02500Y-03800D01*
X03200Y-03500D02*
X02800Y-03500D01*
X03700Y-03000D02*
X03200Y-03500D01*
X03700Y-02700D02*
X03700Y-03000D01*
X04050Y-02350D02*
X03700Y-02700D01*
X03750Y-06750D02*
X04250Y-06750D01*
X04250Y-06750D02*
X04586Y-06414D01*
X14750Y-12650D02*
X14750Y-15750D01*
X14400Y-08400D02*
X15278Y-08400D01*
X15278Y-08400D02*
X15439Y-08239D01*
X13750Y-07750D02*
X14400Y-08400D01*
X15439Y-03698D02*
X15353Y-03612D01*
X15439Y-11961D02*
X14750Y-12650D01*
X15439Y-08239D02*
X15439Y-11961D01*
X15439Y-05961D02*
X16000Y-05400D01*
X16000Y-05400D02*
X16000Y-04259D01*
X16000Y-04259D02*
X15353Y-03612D01*
X15439Y-08239D02*
X15439Y-05961D01*
X05439Y-08239D02*
X05439Y-05961D01*
X06000Y-04259D02*
X05353Y-03612D01*
X06000Y-05400D02*
X06000Y-04259D01*
X05439Y-05961D02*
X06000Y-05400D01*
X05439Y-08239D02*
X05439Y-11961D01*
X05439Y-11961D02*
X04750Y-12650D01*
X05439Y-03698D02*
X05353Y-03612D01*
X03750Y-07750D02*
X04400Y-08400D01*
X05278Y-08400D02*
X05439Y-08239D01*
X04400Y-08400D02*
X05278Y-08400D01*
X04750Y-12650D02*
X04750Y-15750D01*
G54D22*
X11800Y-09176D02*
X11776Y-09200D01*
X11776Y-09200D02*
X11776Y-10026D01*
X11776Y-10026D02*
X12250Y-10500D01*
G54D21*
X11800Y-08300D02*
X11800Y-08400D01*
X12300Y-08300D02*
X11800Y-08300D01*
X13100Y-09600D02*
X12300Y-08300D01*
X13100Y-09600D02*
X13100Y-09600D01*
G54D22*
X11800Y-08400D02*
X11800Y-09176D01*
G54D21*
X13100Y-16100D02*
X13200Y-16000D01*
X13100Y-16000D02*
X13100Y-16100D01*
X13100Y-09600D02*
X13100Y-16000D01*
X13800Y-16000D02*
X14700Y-16900D01*
X14700Y-16900D02*
X15600Y-16900D01*
X13100Y-16000D02*
X13800Y-16000D01*
X03100Y-16000D02*
X03800Y-16000D01*
X04700Y-16900D02*
X05600Y-16900D01*
X03800Y-16000D02*
X04700Y-16900D01*
X03100Y-09600D02*
X03100Y-16000D01*
X03100Y-16000D02*
X03100Y-16100D01*
X03100Y-16100D02*
X03200Y-16000D01*
G54D22*
X01800Y-08400D02*
X01800Y-09176D01*
G54D21*
X03100Y-09600D02*
X03100Y-09600D01*
X03100Y-09600D02*
X02300Y-08300D01*
X02300Y-08300D02*
X01800Y-08300D01*
X01800Y-08300D02*
X01800Y-08400D01*
G54D22*
X01776Y-10026D02*
X02250Y-10500D01*
X01776Y-09200D02*
X01776Y-10026D01*
X01800Y-09176D02*
X01776Y-09200D01*
G54D21*
X18500Y-00500D02*
X17750Y-01250D01*
X17750Y-01250D02*
X17750Y-01750D01*
X17750Y-01750D02*
X19000Y-03000D01*
X19000Y-00500D02*
X18500Y-00500D01*
X19000Y-05700D02*
X18400Y-06300D01*
X18400Y-06300D02*
X18400Y-07400D01*
X18400Y-07400D02*
X19000Y-08000D01*
X19000Y-05500D02*
X19000Y-05700D01*
X18800Y-18000D02*
X18100Y-17300D01*
X18100Y-17300D02*
X18100Y-16400D01*
X18100Y-16400D02*
X19000Y-15500D01*
X19000Y-18000D02*
X18800Y-18000D01*
X12250Y-09350D02*
X12800Y-09900D01*
X12800Y-09900D02*
X12800Y-11200D01*
X12800Y-11200D02*
X12400Y-11600D01*
X12400Y-11600D02*
X12200Y-11600D01*
X12250Y-09250D02*
X12250Y-09350D01*
X12200Y-13450D02*
X12250Y-13500D01*
X12200Y-11600D02*
X12200Y-13450D01*
X12000Y-13750D02*
X12250Y-13500D01*
X12000Y-17000D02*
X12000Y-13750D01*
X18861Y-10361D02*
X19000Y-10500D01*
X17561Y-10361D02*
X18861Y-10361D01*
X18700Y-10500D02*
X18300Y-10900D01*
X18300Y-10900D02*
X18300Y-12300D01*
X18300Y-12300D02*
X19000Y-13000D01*
X19000Y-10500D02*
X18700Y-10500D01*
X09000Y-10500D02*
X08700Y-10500D01*
X08300Y-12300D02*
X09000Y-13000D01*
X08300Y-10900D02*
X08300Y-12300D01*
X08700Y-10500D02*
X08300Y-10900D01*
X07561Y-10361D02*
X08861Y-10361D01*
X08861Y-10361D02*
X09000Y-10500D01*
X02000Y-17000D02*
X02000Y-13750D01*
X02000Y-13750D02*
X02250Y-13500D01*
X02200Y-11600D02*
X02200Y-13450D01*
X02200Y-13450D02*
X02250Y-13500D01*
X02250Y-09250D02*
X02250Y-09350D01*
X02400Y-11600D02*
X02200Y-11600D01*
X02800Y-11200D02*
X02400Y-11600D01*
X02800Y-09900D02*
X02800Y-11200D01*
X02250Y-09350D02*
X02800Y-09900D01*
X09000Y-18000D02*
X08800Y-18000D01*
X08100Y-16400D02*
X09000Y-15500D01*
X08100Y-17300D02*
X08100Y-16400D01*
X08800Y-18000D02*
X08100Y-17300D01*
X09000Y-05500D02*
X09000Y-05700D01*
X08400Y-07400D02*
X09000Y-08000D01*
X08400Y-06300D02*
X08400Y-07400D01*
X09000Y-05700D02*
X08400Y-06300D01*
X09000Y-00500D02*
X08500Y-00500D01*
X07750Y-01750D02*
X09000Y-03000D01*
X07750Y-01250D02*
X07750Y-01750D01*
X08500Y-00500D02*
X07750Y-01250D01*
X17828Y-04000D02*
X17414Y-03586D01*
X19000Y-04000D02*
X17828Y-04000D01*
X09000Y-04000D02*
X07828Y-04000D01*
X07828Y-04000D02*
X07414Y-03586D01*
X17664Y-05936D02*
X16900Y-06700D01*
X16900Y-06700D02*
X16900Y-07100D01*
X16900Y-07100D02*
X17700Y-07900D01*
X17700Y-07900D02*
X17900Y-07900D01*
X17900Y-07900D02*
X18300Y-08300D01*
X18300Y-08300D02*
X19000Y-09000D01*
X17664Y-04836D02*
X17664Y-05936D01*
X07664Y-04836D02*
X07664Y-05936D01*
X08300Y-08300D02*
X09000Y-09000D01*
X07900Y-07900D02*
X08300Y-08300D01*
X07700Y-07900D02*
X07900Y-07900D01*
X06900Y-07100D02*
X07700Y-07900D01*
X06900Y-06700D02*
X06900Y-07100D01*
X07664Y-05936D02*
X06900Y-06700D01*
X12950Y-01750D02*
X12100Y-02600D01*
X12100Y-02600D02*
X12100Y-04400D01*
X12100Y-04400D02*
X12200Y-04500D01*
X13300Y-04000D02*
X13400Y-04100D01*
X13400Y-04100D02*
X14000Y-04100D01*
X14000Y-04100D02*
X14200Y-04300D01*
X14200Y-04300D02*
X15000Y-04300D01*
X12950Y-01000D02*
X12950Y-01750D01*
X02950Y-01000D02*
X02950Y-01750D01*
X04200Y-04300D02*
X05000Y-04300D01*
X04000Y-04100D02*
X04200Y-04300D01*
X03400Y-04100D02*
X04000Y-04100D01*
X03300Y-04000D02*
X03400Y-04100D01*
X02100Y-04400D02*
X02200Y-04500D01*
X02100Y-02600D02*
X02100Y-04400D01*
X02950Y-01750D02*
X02100Y-02600D01*
X17100Y-17600D02*
X18500Y-19000D01*
X18500Y-19000D02*
X19000Y-19000D01*
X16600Y-17600D02*
X17100Y-17600D01*
X06600Y-17600D02*
X07100Y-17600D01*
X08500Y-19000D02*
X09000Y-19000D01*
X07100Y-17600D02*
X08500Y-19000D01*
X17614Y-12314D02*
X18200Y-12900D01*
X18200Y-12900D02*
X18200Y-13200D01*
X18200Y-13200D02*
X19000Y-14000D01*
X17614Y-11814D02*
X17614Y-12314D01*
X07614Y-11814D02*
X07614Y-12314D01*
X08200Y-13200D02*
X09000Y-14000D01*
X08200Y-12900D02*
X08200Y-13200D01*
X07614Y-12314D02*
X08200Y-12900D01*
X14786Y-09714D02*
X13750Y-10750D01*
X14786Y-08986D02*
X14786Y-09714D01*
X04786Y-08986D02*
X04786Y-09714D01*
X04786Y-09714D02*
X03750Y-10750D01*
X14786Y-10714D02*
X13750Y-11750D01*
X14786Y-10486D02*
X14786Y-10714D01*
X04786Y-10486D02*
X04786Y-10714D01*
X04786Y-10714D02*
X03750Y-11750D01*
X10800Y-02800D02*
X11500Y-02800D01*
X10700Y-02700D02*
X10800Y-02800D01*
X11500Y-02800D02*
X11500Y-15000D01*
X11500Y-15000D02*
X10750Y-15750D01*
X01500Y-15000D02*
X00750Y-15750D01*
X01500Y-02800D02*
X01500Y-15000D01*
X00700Y-02700D02*
X00800Y-02800D01*
X00800Y-02800D02*
X01500Y-02800D01*
X14400Y-17600D02*
X13800Y-17000D01*
X13800Y-17000D02*
X13000Y-17000D01*
X14400Y-18500D02*
X14400Y-17600D01*
X10800Y-18800D02*
X11800Y-17800D01*
X11800Y-17800D02*
X13700Y-17800D01*
X13700Y-17800D02*
X14400Y-18500D01*
X10700Y-18800D02*
X10800Y-18800D01*
X00700Y-18800D02*
X00800Y-18800D01*
X03700Y-17800D02*
X04400Y-18500D01*
X01800Y-17800D02*
X03700Y-17800D01*
X00800Y-18800D02*
X01800Y-17800D01*
X04400Y-18500D02*
X04400Y-17600D01*
X03800Y-17000D02*
X03000Y-17000D01*
X04400Y-17600D02*
X03800Y-17000D01*
M02*
