G04 (created by PCBNEW-RS274X (2011-05-25)-stable) date Fri 31 Aug 2012 09:10:07 AM CDT*
G01*
G70*
G90*
%MOIN*%
G04 Gerber Fmt 3.4, Leading zero omitted, Abs format*
%FSLAX34Y34*%
G04 APERTURE LIST*
%ADD10C,0.006000*%
%ADD11C,0.015000*%
%ADD12C,0.008000*%
%ADD13C,0.012000*%
%ADD14C,0.007400*%
%ADD15C,0.012500*%
G04 APERTURE END LIST*
G54D10*
G54D11*
X00000Y00000D02*
X00000Y-19685D01*
X19685Y00000D02*
X19685Y-19685D01*
X00000Y-19685D02*
X19685Y-19685D01*
X00000Y00000D02*
X19685Y00000D01*
G54D10*
X14960Y-14621D02*
X14960Y-14321D01*
X14880Y-14536D01*
X14800Y-14321D01*
X14800Y-14621D01*
X14686Y-14621D02*
X14686Y-14421D01*
X14686Y-14321D02*
X14697Y-14336D01*
X14686Y-14350D01*
X14674Y-14336D01*
X14686Y-14321D01*
X14686Y-14350D01*
X14572Y-14421D02*
X14572Y-14621D01*
X14572Y-14450D02*
X14560Y-14436D01*
X14538Y-14421D01*
X14503Y-14421D01*
X14480Y-14436D01*
X14469Y-14464D01*
X14469Y-14621D01*
X14355Y-14621D02*
X14355Y-14421D01*
X14355Y-14321D02*
X14366Y-14336D01*
X14355Y-14350D01*
X14343Y-14336D01*
X14355Y-14321D01*
X14355Y-14350D01*
X14241Y-14621D02*
X14241Y-14321D01*
X14149Y-14321D01*
X14127Y-14336D01*
X14115Y-14350D01*
X14104Y-14379D01*
X14104Y-14421D01*
X14115Y-14450D01*
X14127Y-14464D01*
X14149Y-14479D01*
X14241Y-14479D01*
X13955Y-14321D02*
X13909Y-14321D01*
X13887Y-14336D01*
X13864Y-14364D01*
X13852Y-14421D01*
X13852Y-14521D01*
X13864Y-14579D01*
X13887Y-14607D01*
X13909Y-14621D01*
X13955Y-14621D01*
X13978Y-14607D01*
X14001Y-14579D01*
X14012Y-14521D01*
X14012Y-14421D01*
X14001Y-14364D01*
X13978Y-14336D01*
X13955Y-14321D01*
X13784Y-14321D02*
X13704Y-14621D01*
X13624Y-14321D01*
X13567Y-14321D02*
X13418Y-14321D01*
X13498Y-14436D01*
X13464Y-14436D01*
X13441Y-14450D01*
X13430Y-14464D01*
X13418Y-14493D01*
X13418Y-14564D01*
X13430Y-14593D01*
X13441Y-14607D01*
X13464Y-14621D01*
X13532Y-14621D01*
X13555Y-14607D01*
X13567Y-14593D01*
X13132Y-14507D02*
X12949Y-14507D01*
X12560Y-14607D02*
X12583Y-14621D01*
X12629Y-14621D01*
X12652Y-14607D01*
X12663Y-14579D01*
X12663Y-14464D01*
X12652Y-14436D01*
X12629Y-14421D01*
X12583Y-14421D01*
X12560Y-14436D01*
X12549Y-14464D01*
X12549Y-14493D01*
X12663Y-14521D01*
X12469Y-14421D02*
X12412Y-14621D01*
X12354Y-14421D01*
X12171Y-14607D02*
X12194Y-14621D01*
X12240Y-14621D01*
X12263Y-14607D01*
X12274Y-14579D01*
X12274Y-14464D01*
X12263Y-14436D01*
X12240Y-14421D01*
X12194Y-14421D01*
X12171Y-14436D01*
X12160Y-14464D01*
X12160Y-14493D01*
X12274Y-14521D01*
X12057Y-14421D02*
X12057Y-14621D01*
X12057Y-14450D02*
X12045Y-14436D01*
X12023Y-14421D01*
X11988Y-14421D01*
X11965Y-14436D01*
X11954Y-14464D01*
X11954Y-14621D01*
X11657Y-14621D02*
X11657Y-14421D01*
X11657Y-14450D02*
X11645Y-14436D01*
X11623Y-14421D01*
X11588Y-14421D01*
X11565Y-14436D01*
X11554Y-14464D01*
X11554Y-14621D01*
X11554Y-14464D02*
X11543Y-14436D01*
X11520Y-14421D01*
X11485Y-14421D01*
X11463Y-14436D01*
X11451Y-14464D01*
X11451Y-14621D01*
X11337Y-14621D02*
X11337Y-14421D01*
X11337Y-14321D02*
X11348Y-14336D01*
X11337Y-14350D01*
X11325Y-14336D01*
X11337Y-14321D01*
X11337Y-14350D01*
X11223Y-14421D02*
X11223Y-14621D01*
X11223Y-14450D02*
X11211Y-14436D01*
X11189Y-14421D01*
X11154Y-14421D01*
X11131Y-14436D01*
X11120Y-14464D01*
X11120Y-14621D01*
X11006Y-14621D02*
X11006Y-14421D01*
X11006Y-14321D02*
X11017Y-14336D01*
X11006Y-14350D01*
X10994Y-14336D01*
X11006Y-14321D01*
X11006Y-14350D01*
X10892Y-14507D02*
X10709Y-14507D01*
X10503Y-14607D02*
X10526Y-14621D01*
X10572Y-14621D01*
X10595Y-14607D01*
X10606Y-14579D01*
X10606Y-14464D01*
X10595Y-14436D01*
X10572Y-14421D01*
X10526Y-14421D01*
X10503Y-14436D01*
X10492Y-14464D01*
X10492Y-14493D01*
X10606Y-14521D01*
X10389Y-14621D02*
X10389Y-14421D01*
X10389Y-14479D02*
X10377Y-14450D01*
X10366Y-14436D01*
X10343Y-14421D01*
X10320Y-14421D01*
X10240Y-14593D02*
X10228Y-14607D01*
X10240Y-14621D01*
X10251Y-14607D01*
X10240Y-14593D01*
X10240Y-14621D01*
X10240Y-14507D02*
X10251Y-14336D01*
X10240Y-14321D01*
X10228Y-14336D01*
X10240Y-14507D01*
X10240Y-14321D01*
G54D11*
X17360Y-16100D02*
X17353Y-16169D01*
X17332Y-16237D01*
X17299Y-16299D01*
X17255Y-16353D01*
X17201Y-16398D01*
X17139Y-16431D01*
X17072Y-16452D01*
X17002Y-16459D01*
X16933Y-16453D01*
X16866Y-16433D01*
X16803Y-16401D01*
X16749Y-16357D01*
X16703Y-16303D01*
X16670Y-16241D01*
X16648Y-16174D01*
X16641Y-16105D01*
X16646Y-16036D01*
X16666Y-15968D01*
X16698Y-15905D01*
X16742Y-15850D01*
X16795Y-15805D01*
X16856Y-15771D01*
X16923Y-15749D01*
X16993Y-15741D01*
X17062Y-15746D01*
X17130Y-15765D01*
X17192Y-15797D01*
X17248Y-15840D01*
X17294Y-15893D01*
X17328Y-15954D01*
X17351Y-16021D01*
X17359Y-16090D01*
X17360Y-16100D01*
G54D12*
X17000Y-16262D02*
X17000Y-15862D01*
G54D13*
X17442Y-15543D02*
X17642Y-15257D01*
X17785Y-15543D02*
X17785Y-14943D01*
X17557Y-14943D01*
X17499Y-14971D01*
X17471Y-15000D01*
X17442Y-15057D01*
X17442Y-15143D01*
X17471Y-15200D01*
X17499Y-15229D01*
X17557Y-15257D01*
X17785Y-15257D01*
X16957Y-15514D02*
X17014Y-15543D01*
X17128Y-15543D01*
X17185Y-15514D01*
X17214Y-15457D01*
X17214Y-15229D01*
X17185Y-15171D01*
X17128Y-15143D01*
X17014Y-15143D01*
X16957Y-15171D01*
X16928Y-15229D01*
X16928Y-15286D01*
X17214Y-15343D01*
X16728Y-15143D02*
X16585Y-15543D01*
X16443Y-15143D01*
X16214Y-15486D02*
X16186Y-15514D01*
X16214Y-15543D01*
X16243Y-15514D01*
X16214Y-15486D01*
X16214Y-15543D01*
G54D14*
X16055Y-17765D02*
X15995Y-17765D01*
X15965Y-17784D01*
X15935Y-17822D01*
X15920Y-17897D01*
X15920Y-18028D01*
X15935Y-18103D01*
X15965Y-18141D01*
X15995Y-18159D01*
X16055Y-18159D01*
X16085Y-18141D01*
X16115Y-18103D01*
X16130Y-18028D01*
X16130Y-17897D01*
X16115Y-17822D01*
X16085Y-17784D01*
X16055Y-17765D01*
X15785Y-18159D02*
X15785Y-17897D01*
X15785Y-17972D02*
X15770Y-17934D01*
X15755Y-17916D01*
X15725Y-17897D01*
X15695Y-17897D01*
X15455Y-18159D02*
X15455Y-17765D01*
X15455Y-18141D02*
X15485Y-18159D01*
X15545Y-18159D01*
X15575Y-18141D01*
X15590Y-18122D01*
X15605Y-18084D01*
X15605Y-17972D01*
X15590Y-17934D01*
X15575Y-17916D01*
X15545Y-17897D01*
X15485Y-17897D01*
X15455Y-17916D01*
X15185Y-18141D02*
X15215Y-18159D01*
X15275Y-18159D01*
X15305Y-18141D01*
X15320Y-18103D01*
X15320Y-17953D01*
X15305Y-17916D01*
X15275Y-17897D01*
X15215Y-17897D01*
X15185Y-17916D01*
X15170Y-17953D01*
X15170Y-17991D01*
X15320Y-18028D01*
X15035Y-18159D02*
X15035Y-17897D01*
X15035Y-17972D02*
X15020Y-17934D01*
X15005Y-17916D01*
X14975Y-17897D01*
X14945Y-17897D01*
X14600Y-18159D02*
X14600Y-17765D01*
X14420Y-18159D01*
X14420Y-17765D01*
X14225Y-18159D02*
X14255Y-18141D01*
X14270Y-18122D01*
X14285Y-18084D01*
X14285Y-17972D01*
X14270Y-17934D01*
X14255Y-17916D01*
X14225Y-17897D01*
X14180Y-17897D01*
X14150Y-17916D01*
X14135Y-17934D01*
X14120Y-17972D01*
X14120Y-18084D01*
X14135Y-18122D01*
X14150Y-18141D01*
X14180Y-18159D01*
X14225Y-18159D01*
X13985Y-18122D02*
X13970Y-18141D01*
X13985Y-18159D01*
X14000Y-18141D01*
X13985Y-18122D01*
X13985Y-18159D01*
X13670Y-18159D02*
X13850Y-18159D01*
X13760Y-18159D02*
X13760Y-17765D01*
X13790Y-17822D01*
X13820Y-17859D01*
X13850Y-17878D01*
X13475Y-17765D02*
X13445Y-17765D01*
X13415Y-17784D01*
X13400Y-17803D01*
X13385Y-17841D01*
X13370Y-17916D01*
X13370Y-18009D01*
X13385Y-18084D01*
X13400Y-18122D01*
X13415Y-18141D01*
X13445Y-18159D01*
X13475Y-18159D01*
X13505Y-18141D01*
X13520Y-18122D01*
X13535Y-18084D01*
X13550Y-18009D01*
X13550Y-17916D01*
X13535Y-17841D01*
X13520Y-17803D01*
X13505Y-17784D01*
X13475Y-17765D01*
X13175Y-17765D02*
X13145Y-17765D01*
X13115Y-17784D01*
X13100Y-17803D01*
X13085Y-17841D01*
X13070Y-17916D01*
X13070Y-18009D01*
X13085Y-18084D01*
X13100Y-18122D01*
X13115Y-18141D01*
X13145Y-18159D01*
X13175Y-18159D01*
X13205Y-18141D01*
X13220Y-18122D01*
X13235Y-18084D01*
X13250Y-18009D01*
X13250Y-17916D01*
X13235Y-17841D01*
X13220Y-17803D01*
X13205Y-17784D01*
X13175Y-17765D01*
X12875Y-17765D02*
X12845Y-17765D01*
X12815Y-17784D01*
X12800Y-17803D01*
X12785Y-17841D01*
X12770Y-17916D01*
X12770Y-18009D01*
X12785Y-18084D01*
X12800Y-18122D01*
X12815Y-18141D01*
X12845Y-18159D01*
X12875Y-18159D01*
X12905Y-18141D01*
X12920Y-18122D01*
X12935Y-18084D01*
X12950Y-18009D01*
X12950Y-17916D01*
X12935Y-17841D01*
X12920Y-17803D01*
X12905Y-17784D01*
X12875Y-17765D01*
X12575Y-17765D02*
X12545Y-17765D01*
X12515Y-17784D01*
X12500Y-17803D01*
X12485Y-17841D01*
X12470Y-17916D01*
X12470Y-18009D01*
X12485Y-18084D01*
X12500Y-18122D01*
X12515Y-18141D01*
X12545Y-18159D01*
X12575Y-18159D01*
X12605Y-18141D01*
X12620Y-18122D01*
X12635Y-18084D01*
X12650Y-18009D01*
X12650Y-17916D01*
X12635Y-17841D01*
X12620Y-17803D01*
X12605Y-17784D01*
X12575Y-17765D01*
X12170Y-18159D02*
X12350Y-18159D01*
X12260Y-18159D02*
X12260Y-17765D01*
X12290Y-17822D01*
X12320Y-17859D01*
X12350Y-17878D01*
X11990Y-17934D02*
X12020Y-17916D01*
X12035Y-17897D01*
X12050Y-17859D01*
X12050Y-17841D01*
X12035Y-17803D01*
X12020Y-17784D01*
X11990Y-17765D01*
X11930Y-17765D01*
X11900Y-17784D01*
X11885Y-17803D01*
X11870Y-17841D01*
X11870Y-17859D01*
X11885Y-17897D01*
X11900Y-17916D01*
X11930Y-17934D01*
X11990Y-17934D01*
X12020Y-17953D01*
X12035Y-17972D01*
X12050Y-18009D01*
X12050Y-18084D01*
X12035Y-18122D01*
X12020Y-18141D01*
X11990Y-18159D01*
X11930Y-18159D01*
X11900Y-18141D01*
X11885Y-18122D01*
X11870Y-18084D01*
X11870Y-18009D01*
X11885Y-17972D01*
X11900Y-17953D01*
X11930Y-17934D01*
X11675Y-17765D02*
X11645Y-17765D01*
X11615Y-17784D01*
X11600Y-17803D01*
X11585Y-17841D01*
X11570Y-17916D01*
X11570Y-18009D01*
X11585Y-18084D01*
X11600Y-18122D01*
X11615Y-18141D01*
X11645Y-18159D01*
X11675Y-18159D01*
X11705Y-18141D01*
X11720Y-18122D01*
X11735Y-18084D01*
X11750Y-18009D01*
X11750Y-17916D01*
X11735Y-17841D01*
X11720Y-17803D01*
X11705Y-17784D01*
X11675Y-17765D01*
X11420Y-18159D02*
X11360Y-18159D01*
X11330Y-18141D01*
X11315Y-18122D01*
X11285Y-18066D01*
X11270Y-17991D01*
X11270Y-17841D01*
X11285Y-17803D01*
X11300Y-17784D01*
X11330Y-17765D01*
X11390Y-17765D01*
X11420Y-17784D01*
X11435Y-17803D01*
X11450Y-17841D01*
X11450Y-17934D01*
X11435Y-17972D01*
X11420Y-17991D01*
X11390Y-18009D01*
X11330Y-18009D01*
X11300Y-17991D01*
X11285Y-17972D01*
X11270Y-17934D01*
G54D11*
X10000Y00000D02*
X10000Y-19500D01*
X19575Y00000D02*
X19575Y-19500D01*
X10000Y00000D02*
X19575Y00000D01*
X10000Y-19500D02*
X19600Y-19500D01*
X00000Y-19500D02*
X09600Y-19500D01*
X00000Y00000D02*
X09575Y00000D01*
X09575Y00000D02*
X09575Y-19500D01*
X00000Y00000D02*
X00000Y-19500D01*
G54D14*
X06055Y-17765D02*
X05995Y-17765D01*
X05965Y-17784D01*
X05935Y-17822D01*
X05920Y-17897D01*
X05920Y-18028D01*
X05935Y-18103D01*
X05965Y-18141D01*
X05995Y-18159D01*
X06055Y-18159D01*
X06085Y-18141D01*
X06115Y-18103D01*
X06130Y-18028D01*
X06130Y-17897D01*
X06115Y-17822D01*
X06085Y-17784D01*
X06055Y-17765D01*
X05785Y-18159D02*
X05785Y-17897D01*
X05785Y-17972D02*
X05770Y-17934D01*
X05755Y-17916D01*
X05725Y-17897D01*
X05695Y-17897D01*
X05455Y-18159D02*
X05455Y-17765D01*
X05455Y-18141D02*
X05485Y-18159D01*
X05545Y-18159D01*
X05575Y-18141D01*
X05590Y-18122D01*
X05605Y-18084D01*
X05605Y-17972D01*
X05590Y-17934D01*
X05575Y-17916D01*
X05545Y-17897D01*
X05485Y-17897D01*
X05455Y-17916D01*
X05185Y-18141D02*
X05215Y-18159D01*
X05275Y-18159D01*
X05305Y-18141D01*
X05320Y-18103D01*
X05320Y-17953D01*
X05305Y-17916D01*
X05275Y-17897D01*
X05215Y-17897D01*
X05185Y-17916D01*
X05170Y-17953D01*
X05170Y-17991D01*
X05320Y-18028D01*
X05035Y-18159D02*
X05035Y-17897D01*
X05035Y-17972D02*
X05020Y-17934D01*
X05005Y-17916D01*
X04975Y-17897D01*
X04945Y-17897D01*
X04600Y-18159D02*
X04600Y-17765D01*
X04420Y-18159D01*
X04420Y-17765D01*
X04225Y-18159D02*
X04255Y-18141D01*
X04270Y-18122D01*
X04285Y-18084D01*
X04285Y-17972D01*
X04270Y-17934D01*
X04255Y-17916D01*
X04225Y-17897D01*
X04180Y-17897D01*
X04150Y-17916D01*
X04135Y-17934D01*
X04120Y-17972D01*
X04120Y-18084D01*
X04135Y-18122D01*
X04150Y-18141D01*
X04180Y-18159D01*
X04225Y-18159D01*
X03985Y-18122D02*
X03970Y-18141D01*
X03985Y-18159D01*
X04000Y-18141D01*
X03985Y-18122D01*
X03985Y-18159D01*
X03670Y-18159D02*
X03850Y-18159D01*
X03760Y-18159D02*
X03760Y-17765D01*
X03790Y-17822D01*
X03820Y-17859D01*
X03850Y-17878D01*
X03475Y-17765D02*
X03445Y-17765D01*
X03415Y-17784D01*
X03400Y-17803D01*
X03385Y-17841D01*
X03370Y-17916D01*
X03370Y-18009D01*
X03385Y-18084D01*
X03400Y-18122D01*
X03415Y-18141D01*
X03445Y-18159D01*
X03475Y-18159D01*
X03505Y-18141D01*
X03520Y-18122D01*
X03535Y-18084D01*
X03550Y-18009D01*
X03550Y-17916D01*
X03535Y-17841D01*
X03520Y-17803D01*
X03505Y-17784D01*
X03475Y-17765D01*
X03175Y-17765D02*
X03145Y-17765D01*
X03115Y-17784D01*
X03100Y-17803D01*
X03085Y-17841D01*
X03070Y-17916D01*
X03070Y-18009D01*
X03085Y-18084D01*
X03100Y-18122D01*
X03115Y-18141D01*
X03145Y-18159D01*
X03175Y-18159D01*
X03205Y-18141D01*
X03220Y-18122D01*
X03235Y-18084D01*
X03250Y-18009D01*
X03250Y-17916D01*
X03235Y-17841D01*
X03220Y-17803D01*
X03205Y-17784D01*
X03175Y-17765D01*
X02875Y-17765D02*
X02845Y-17765D01*
X02815Y-17784D01*
X02800Y-17803D01*
X02785Y-17841D01*
X02770Y-17916D01*
X02770Y-18009D01*
X02785Y-18084D01*
X02800Y-18122D01*
X02815Y-18141D01*
X02845Y-18159D01*
X02875Y-18159D01*
X02905Y-18141D01*
X02920Y-18122D01*
X02935Y-18084D01*
X02950Y-18009D01*
X02950Y-17916D01*
X02935Y-17841D01*
X02920Y-17803D01*
X02905Y-17784D01*
X02875Y-17765D01*
X02575Y-17765D02*
X02545Y-17765D01*
X02515Y-17784D01*
X02500Y-17803D01*
X02485Y-17841D01*
X02470Y-17916D01*
X02470Y-18009D01*
X02485Y-18084D01*
X02500Y-18122D01*
X02515Y-18141D01*
X02545Y-18159D01*
X02575Y-18159D01*
X02605Y-18141D01*
X02620Y-18122D01*
X02635Y-18084D01*
X02650Y-18009D01*
X02650Y-17916D01*
X02635Y-17841D01*
X02620Y-17803D01*
X02605Y-17784D01*
X02575Y-17765D01*
X02170Y-18159D02*
X02350Y-18159D01*
X02260Y-18159D02*
X02260Y-17765D01*
X02290Y-17822D01*
X02320Y-17859D01*
X02350Y-17878D01*
X01990Y-17934D02*
X02020Y-17916D01*
X02035Y-17897D01*
X02050Y-17859D01*
X02050Y-17841D01*
X02035Y-17803D01*
X02020Y-17784D01*
X01990Y-17765D01*
X01930Y-17765D01*
X01900Y-17784D01*
X01885Y-17803D01*
X01870Y-17841D01*
X01870Y-17859D01*
X01885Y-17897D01*
X01900Y-17916D01*
X01930Y-17934D01*
X01990Y-17934D01*
X02020Y-17953D01*
X02035Y-17972D01*
X02050Y-18009D01*
X02050Y-18084D01*
X02035Y-18122D01*
X02020Y-18141D01*
X01990Y-18159D01*
X01930Y-18159D01*
X01900Y-18141D01*
X01885Y-18122D01*
X01870Y-18084D01*
X01870Y-18009D01*
X01885Y-17972D01*
X01900Y-17953D01*
X01930Y-17934D01*
X01675Y-17765D02*
X01645Y-17765D01*
X01615Y-17784D01*
X01600Y-17803D01*
X01585Y-17841D01*
X01570Y-17916D01*
X01570Y-18009D01*
X01585Y-18084D01*
X01600Y-18122D01*
X01615Y-18141D01*
X01645Y-18159D01*
X01675Y-18159D01*
X01705Y-18141D01*
X01720Y-18122D01*
X01735Y-18084D01*
X01750Y-18009D01*
X01750Y-17916D01*
X01735Y-17841D01*
X01720Y-17803D01*
X01705Y-17784D01*
X01675Y-17765D01*
X01420Y-18159D02*
X01360Y-18159D01*
X01330Y-18141D01*
X01315Y-18122D01*
X01285Y-18066D01*
X01270Y-17991D01*
X01270Y-17841D01*
X01285Y-17803D01*
X01300Y-17784D01*
X01330Y-17765D01*
X01390Y-17765D01*
X01420Y-17784D01*
X01435Y-17803D01*
X01450Y-17841D01*
X01450Y-17934D01*
X01435Y-17972D01*
X01420Y-17991D01*
X01390Y-18009D01*
X01330Y-18009D01*
X01300Y-17991D01*
X01285Y-17972D01*
X01270Y-17934D01*
G54D13*
X07442Y-15543D02*
X07642Y-15257D01*
X07785Y-15543D02*
X07785Y-14943D01*
X07557Y-14943D01*
X07499Y-14971D01*
X07471Y-15000D01*
X07442Y-15057D01*
X07442Y-15143D01*
X07471Y-15200D01*
X07499Y-15229D01*
X07557Y-15257D01*
X07785Y-15257D01*
X06957Y-15514D02*
X07014Y-15543D01*
X07128Y-15543D01*
X07185Y-15514D01*
X07214Y-15457D01*
X07214Y-15229D01*
X07185Y-15171D01*
X07128Y-15143D01*
X07014Y-15143D01*
X06957Y-15171D01*
X06928Y-15229D01*
X06928Y-15286D01*
X07214Y-15343D01*
X06728Y-15143D02*
X06585Y-15543D01*
X06443Y-15143D01*
X06214Y-15486D02*
X06186Y-15514D01*
X06214Y-15543D01*
X06243Y-15514D01*
X06214Y-15486D01*
X06214Y-15543D01*
G54D12*
X07000Y-16262D02*
X07000Y-15862D01*
G54D11*
X07360Y-16100D02*
X07353Y-16169D01*
X07332Y-16237D01*
X07299Y-16299D01*
X07255Y-16353D01*
X07201Y-16398D01*
X07139Y-16431D01*
X07072Y-16452D01*
X07002Y-16459D01*
X06933Y-16453D01*
X06866Y-16433D01*
X06803Y-16401D01*
X06749Y-16357D01*
X06703Y-16303D01*
X06670Y-16241D01*
X06648Y-16174D01*
X06641Y-16105D01*
X06646Y-16036D01*
X06666Y-15968D01*
X06698Y-15905D01*
X06742Y-15850D01*
X06795Y-15805D01*
X06856Y-15771D01*
X06923Y-15749D01*
X06993Y-15741D01*
X07062Y-15746D01*
X07130Y-15765D01*
X07192Y-15797D01*
X07248Y-15840D01*
X07294Y-15893D01*
X07328Y-15954D01*
X07351Y-16021D01*
X07359Y-16090D01*
X07360Y-16100D01*
G54D10*
X04960Y-14621D02*
X04960Y-14321D01*
X04880Y-14536D01*
X04800Y-14321D01*
X04800Y-14621D01*
X04686Y-14621D02*
X04686Y-14421D01*
X04686Y-14321D02*
X04697Y-14336D01*
X04686Y-14350D01*
X04674Y-14336D01*
X04686Y-14321D01*
X04686Y-14350D01*
X04572Y-14421D02*
X04572Y-14621D01*
X04572Y-14450D02*
X04560Y-14436D01*
X04538Y-14421D01*
X04503Y-14421D01*
X04480Y-14436D01*
X04469Y-14464D01*
X04469Y-14621D01*
X04355Y-14621D02*
X04355Y-14421D01*
X04355Y-14321D02*
X04366Y-14336D01*
X04355Y-14350D01*
X04343Y-14336D01*
X04355Y-14321D01*
X04355Y-14350D01*
X04241Y-14621D02*
X04241Y-14321D01*
X04149Y-14321D01*
X04127Y-14336D01*
X04115Y-14350D01*
X04104Y-14379D01*
X04104Y-14421D01*
X04115Y-14450D01*
X04127Y-14464D01*
X04149Y-14479D01*
X04241Y-14479D01*
X03955Y-14321D02*
X03909Y-14321D01*
X03887Y-14336D01*
X03864Y-14364D01*
X03852Y-14421D01*
X03852Y-14521D01*
X03864Y-14579D01*
X03887Y-14607D01*
X03909Y-14621D01*
X03955Y-14621D01*
X03978Y-14607D01*
X04001Y-14579D01*
X04012Y-14521D01*
X04012Y-14421D01*
X04001Y-14364D01*
X03978Y-14336D01*
X03955Y-14321D01*
X03784Y-14321D02*
X03704Y-14621D01*
X03624Y-14321D01*
X03567Y-14321D02*
X03418Y-14321D01*
X03498Y-14436D01*
X03464Y-14436D01*
X03441Y-14450D01*
X03430Y-14464D01*
X03418Y-14493D01*
X03418Y-14564D01*
X03430Y-14593D01*
X03441Y-14607D01*
X03464Y-14621D01*
X03532Y-14621D01*
X03555Y-14607D01*
X03567Y-14593D01*
X03132Y-14507D02*
X02949Y-14507D01*
X02560Y-14607D02*
X02583Y-14621D01*
X02629Y-14621D01*
X02652Y-14607D01*
X02663Y-14579D01*
X02663Y-14464D01*
X02652Y-14436D01*
X02629Y-14421D01*
X02583Y-14421D01*
X02560Y-14436D01*
X02549Y-14464D01*
X02549Y-14493D01*
X02663Y-14521D01*
X02469Y-14421D02*
X02412Y-14621D01*
X02354Y-14421D01*
X02171Y-14607D02*
X02194Y-14621D01*
X02240Y-14621D01*
X02263Y-14607D01*
X02274Y-14579D01*
X02274Y-14464D01*
X02263Y-14436D01*
X02240Y-14421D01*
X02194Y-14421D01*
X02171Y-14436D01*
X02160Y-14464D01*
X02160Y-14493D01*
X02274Y-14521D01*
X02057Y-14421D02*
X02057Y-14621D01*
X02057Y-14450D02*
X02045Y-14436D01*
X02023Y-14421D01*
X01988Y-14421D01*
X01965Y-14436D01*
X01954Y-14464D01*
X01954Y-14621D01*
X01657Y-14621D02*
X01657Y-14421D01*
X01657Y-14450D02*
X01645Y-14436D01*
X01623Y-14421D01*
X01588Y-14421D01*
X01565Y-14436D01*
X01554Y-14464D01*
X01554Y-14621D01*
X01554Y-14464D02*
X01543Y-14436D01*
X01520Y-14421D01*
X01485Y-14421D01*
X01463Y-14436D01*
X01451Y-14464D01*
X01451Y-14621D01*
X01337Y-14621D02*
X01337Y-14421D01*
X01337Y-14321D02*
X01348Y-14336D01*
X01337Y-14350D01*
X01325Y-14336D01*
X01337Y-14321D01*
X01337Y-14350D01*
X01223Y-14421D02*
X01223Y-14621D01*
X01223Y-14450D02*
X01211Y-14436D01*
X01189Y-14421D01*
X01154Y-14421D01*
X01131Y-14436D01*
X01120Y-14464D01*
X01120Y-14621D01*
X01006Y-14621D02*
X01006Y-14421D01*
X01006Y-14321D02*
X01017Y-14336D01*
X01006Y-14350D01*
X00994Y-14336D01*
X01006Y-14321D01*
X01006Y-14350D01*
X00892Y-14507D02*
X00709Y-14507D01*
X00503Y-14607D02*
X00526Y-14621D01*
X00572Y-14621D01*
X00595Y-14607D01*
X00606Y-14579D01*
X00606Y-14464D01*
X00595Y-14436D01*
X00572Y-14421D01*
X00526Y-14421D01*
X00503Y-14436D01*
X00492Y-14464D01*
X00492Y-14493D01*
X00606Y-14521D01*
X00389Y-14621D02*
X00389Y-14421D01*
X00389Y-14479D02*
X00377Y-14450D01*
X00366Y-14436D01*
X00343Y-14421D01*
X00320Y-14421D01*
X00240Y-14593D02*
X00228Y-14607D01*
X00240Y-14621D01*
X00251Y-14607D01*
X00240Y-14593D01*
X00240Y-14621D01*
X00240Y-14507D02*
X00251Y-14336D01*
X00240Y-14321D01*
X00228Y-14336D01*
X00240Y-14507D01*
X00240Y-14321D01*
G54D13*
X10500Y-03750D02*
X10900Y-03750D01*
X10900Y-03750D02*
X10900Y-04150D01*
X10900Y-04150D02*
X14100Y-04150D01*
X14100Y-04150D02*
X14100Y-03350D01*
X14100Y-03350D02*
X10900Y-03350D01*
X10900Y-03350D02*
X10900Y-03750D01*
X10900Y-03950D02*
X11100Y-04150D01*
X14500Y-03750D02*
X14100Y-03750D01*
X14750Y-15750D02*
X14350Y-15750D01*
X14350Y-15750D02*
X14350Y-15350D01*
X14350Y-15350D02*
X11150Y-15350D01*
X11150Y-15350D02*
X11150Y-16150D01*
X11150Y-16150D02*
X14350Y-16150D01*
X14350Y-16150D02*
X14350Y-15750D01*
X14350Y-15550D02*
X14150Y-15350D01*
X10750Y-15750D02*
X11150Y-15750D01*
X15600Y-16900D02*
X15600Y-16500D01*
X15600Y-16500D02*
X16000Y-16500D01*
X16000Y-16500D02*
X16000Y-13300D01*
X16000Y-13300D02*
X15200Y-13300D01*
X15200Y-13300D02*
X15200Y-16500D01*
X15200Y-16500D02*
X15600Y-16500D01*
X15800Y-16500D02*
X16000Y-16300D01*
X15600Y-12900D02*
X15600Y-13300D01*
X17614Y-11814D02*
X17331Y-11531D01*
X17331Y-11531D02*
X17614Y-11249D01*
X17614Y-11249D02*
X15351Y-08986D01*
X15351Y-08986D02*
X14786Y-09551D01*
X14786Y-09551D02*
X17049Y-11814D01*
X17049Y-11814D02*
X17331Y-11531D01*
X17473Y-11390D02*
X17473Y-11107D01*
X14786Y-08986D02*
X15069Y-09269D01*
X17664Y-04836D02*
X17381Y-05119D01*
X17381Y-05119D02*
X17099Y-04836D01*
X17099Y-04836D02*
X14836Y-07099D01*
X14836Y-07099D02*
X15401Y-07664D01*
X15401Y-07664D02*
X17664Y-05401D01*
X17664Y-05401D02*
X17381Y-05119D01*
X17240Y-04977D02*
X16957Y-04977D01*
X14836Y-07664D02*
X15119Y-07381D01*
X17414Y-03586D02*
X17131Y-03869D01*
X17131Y-03869D02*
X16849Y-03586D01*
X16849Y-03586D02*
X14586Y-05849D01*
X14586Y-05849D02*
X15151Y-06414D01*
X15151Y-06414D02*
X17414Y-04151D01*
X17414Y-04151D02*
X17131Y-03869D01*
X16990Y-03727D02*
X16707Y-03727D01*
X14586Y-06414D02*
X14869Y-06131D01*
G54D15*
X12250Y-11200D02*
X12250Y-10500D01*
X12250Y-12800D02*
X12250Y-13500D01*
X12650Y-11400D02*
X11850Y-11400D01*
X12650Y-12800D02*
X11850Y-12800D01*
X11850Y-12800D02*
X11850Y-11200D01*
X11850Y-11200D02*
X12650Y-11200D01*
X12650Y-11200D02*
X12650Y-12800D01*
X12250Y-06950D02*
X12250Y-06250D01*
X12250Y-08550D02*
X12250Y-09250D01*
X12650Y-07150D02*
X11850Y-07150D01*
X12650Y-08550D02*
X11850Y-08550D01*
X11850Y-08550D02*
X11850Y-06950D01*
X11850Y-06950D02*
X12650Y-06950D01*
X12650Y-06950D02*
X12650Y-08550D01*
X02250Y-06950D02*
X02250Y-06250D01*
X02250Y-08550D02*
X02250Y-09250D01*
X02650Y-07150D02*
X01850Y-07150D01*
X02650Y-08550D02*
X01850Y-08550D01*
X01850Y-08550D02*
X01850Y-06950D01*
X01850Y-06950D02*
X02650Y-06950D01*
X02650Y-06950D02*
X02650Y-08550D01*
X02250Y-11200D02*
X02250Y-10500D01*
X02250Y-12800D02*
X02250Y-13500D01*
X02650Y-11400D02*
X01850Y-11400D01*
X02650Y-12800D02*
X01850Y-12800D01*
X01850Y-12800D02*
X01850Y-11200D01*
X01850Y-11200D02*
X02650Y-11200D01*
X02650Y-11200D02*
X02650Y-12800D01*
G54D13*
X07414Y-03586D02*
X07131Y-03869D01*
X07131Y-03869D02*
X06849Y-03586D01*
X06849Y-03586D02*
X04586Y-05849D01*
X04586Y-05849D02*
X05151Y-06414D01*
X05151Y-06414D02*
X07414Y-04151D01*
X07414Y-04151D02*
X07131Y-03869D01*
X06990Y-03727D02*
X06707Y-03727D01*
X04586Y-06414D02*
X04869Y-06131D01*
X07664Y-04836D02*
X07381Y-05119D01*
X07381Y-05119D02*
X07099Y-04836D01*
X07099Y-04836D02*
X04836Y-07099D01*
X04836Y-07099D02*
X05401Y-07664D01*
X05401Y-07664D02*
X07664Y-05401D01*
X07664Y-05401D02*
X07381Y-05119D01*
X07240Y-04977D02*
X06957Y-04977D01*
X04836Y-07664D02*
X05119Y-07381D01*
X07614Y-11814D02*
X07331Y-11531D01*
X07331Y-11531D02*
X07614Y-11249D01*
X07614Y-11249D02*
X05351Y-08986D01*
X05351Y-08986D02*
X04786Y-09551D01*
X04786Y-09551D02*
X07049Y-11814D01*
X07049Y-11814D02*
X07331Y-11531D01*
X07473Y-11390D02*
X07473Y-11107D01*
X04786Y-08986D02*
X05069Y-09269D01*
X05600Y-16900D02*
X05600Y-16500D01*
X05600Y-16500D02*
X06000Y-16500D01*
X06000Y-16500D02*
X06000Y-13300D01*
X06000Y-13300D02*
X05200Y-13300D01*
X05200Y-13300D02*
X05200Y-16500D01*
X05200Y-16500D02*
X05600Y-16500D01*
X05800Y-16500D02*
X06000Y-16300D01*
X05600Y-12900D02*
X05600Y-13300D01*
X04750Y-15750D02*
X04350Y-15750D01*
X04350Y-15750D02*
X04350Y-15350D01*
X04350Y-15350D02*
X01150Y-15350D01*
X01150Y-15350D02*
X01150Y-16150D01*
X01150Y-16150D02*
X04350Y-16150D01*
X04350Y-16150D02*
X04350Y-15750D01*
X04350Y-15550D02*
X04150Y-15350D01*
X00750Y-15750D02*
X01150Y-15750D01*
X00500Y-03750D02*
X00900Y-03750D01*
X00900Y-03750D02*
X00900Y-04150D01*
X00900Y-04150D02*
X04100Y-04150D01*
X04100Y-04150D02*
X04100Y-03350D01*
X04100Y-03350D02*
X00900Y-03350D01*
X00900Y-03350D02*
X00900Y-03750D01*
X00900Y-03950D02*
X01100Y-04150D01*
X04500Y-03750D02*
X04100Y-03750D01*
G54D12*
X12821Y-03973D02*
X12988Y-03711D01*
X13107Y-03973D02*
X13107Y-03423D01*
X12916Y-03423D01*
X12869Y-03449D01*
X12845Y-03475D01*
X12821Y-03527D01*
X12821Y-03606D01*
X12845Y-03658D01*
X12869Y-03685D01*
X12916Y-03711D01*
X13107Y-03711D01*
X12345Y-03973D02*
X12631Y-03973D01*
X12488Y-03973D02*
X12488Y-03423D01*
X12536Y-03501D01*
X12583Y-03554D01*
X12631Y-03580D01*
X11869Y-03973D02*
X12155Y-03973D01*
X12012Y-03973D02*
X12012Y-03423D01*
X12060Y-03501D01*
X12107Y-03554D01*
X12155Y-03580D01*
X13071Y-15973D02*
X13238Y-15711D01*
X13357Y-15973D02*
X13357Y-15423D01*
X13166Y-15423D01*
X13119Y-15449D01*
X13095Y-15475D01*
X13071Y-15527D01*
X13071Y-15606D01*
X13095Y-15658D01*
X13119Y-15685D01*
X13166Y-15711D01*
X13357Y-15711D01*
X12595Y-15973D02*
X12881Y-15973D01*
X12738Y-15973D02*
X12738Y-15423D01*
X12786Y-15501D01*
X12833Y-15554D01*
X12881Y-15580D01*
X12286Y-15423D02*
X12238Y-15423D01*
X12190Y-15449D01*
X12167Y-15475D01*
X12143Y-15527D01*
X12119Y-15632D01*
X12119Y-15763D01*
X12143Y-15868D01*
X12167Y-15920D01*
X12190Y-15946D01*
X12238Y-15973D01*
X12286Y-15973D01*
X12333Y-15946D01*
X12357Y-15920D01*
X12381Y-15868D01*
X12405Y-15763D01*
X12405Y-15632D01*
X12381Y-15527D01*
X12357Y-15475D01*
X12333Y-15449D01*
X12286Y-15423D01*
X15823Y-14817D02*
X15561Y-14650D01*
X15823Y-14531D02*
X15273Y-14531D01*
X15273Y-14722D01*
X15299Y-14769D01*
X15325Y-14793D01*
X15377Y-14817D01*
X15456Y-14817D01*
X15508Y-14793D01*
X15535Y-14769D01*
X15561Y-14722D01*
X15561Y-14531D01*
X15823Y-15055D02*
X15823Y-15150D01*
X15796Y-15198D01*
X15770Y-15222D01*
X15692Y-15269D01*
X15587Y-15293D01*
X15377Y-15293D01*
X15325Y-15269D01*
X15299Y-15245D01*
X15273Y-15198D01*
X15273Y-15102D01*
X15299Y-15055D01*
X15325Y-15031D01*
X15377Y-15007D01*
X15508Y-15007D01*
X15561Y-15031D01*
X15587Y-15055D01*
X15613Y-15102D01*
X15613Y-15198D01*
X15587Y-15245D01*
X15561Y-15269D01*
X15508Y-15293D01*
X16101Y-10616D02*
X16404Y-10549D01*
X16303Y-10819D02*
X16692Y-10430D01*
X16557Y-10295D01*
X16505Y-10280D01*
X16470Y-10281D01*
X16416Y-10301D01*
X16361Y-10357D01*
X16341Y-10411D01*
X16339Y-10447D01*
X16353Y-10498D01*
X16488Y-10633D01*
X16187Y-09925D02*
X16254Y-09992D01*
X16270Y-10044D01*
X16268Y-10079D01*
X16246Y-10169D01*
X16189Y-10259D01*
X16041Y-10408D01*
X15987Y-10428D01*
X15952Y-10429D01*
X15899Y-10415D01*
X15832Y-10347D01*
X15817Y-10295D01*
X15819Y-10259D01*
X15839Y-10206D01*
X15931Y-10113D01*
X15985Y-10093D01*
X16021Y-10091D01*
X16073Y-10106D01*
X16141Y-10174D01*
X16155Y-10225D01*
X16153Y-10261D01*
X16134Y-10315D01*
X16466Y-06349D02*
X16399Y-06046D01*
X16669Y-06147D02*
X16280Y-05758D01*
X16145Y-05893D01*
X16130Y-05945D01*
X16131Y-05980D01*
X16151Y-06034D01*
X16207Y-06089D01*
X16261Y-06109D01*
X16297Y-06111D01*
X16348Y-06097D01*
X16483Y-05962D01*
X15904Y-06392D02*
X16164Y-06652D01*
X15840Y-06159D02*
X16202Y-06353D01*
X15983Y-06572D01*
X16216Y-05099D02*
X16149Y-04796D01*
X16419Y-04897D02*
X16030Y-04508D01*
X15895Y-04643D01*
X15880Y-04695D01*
X15881Y-04730D01*
X15901Y-04784D01*
X15957Y-04839D01*
X16011Y-04859D01*
X16047Y-04861D01*
X16098Y-04847D01*
X16233Y-04712D01*
X15730Y-04881D02*
X15695Y-04880D01*
X15642Y-04895D01*
X15558Y-04979D01*
X15543Y-05031D01*
X15545Y-05066D01*
X15564Y-05120D01*
X15602Y-05158D01*
X15674Y-05196D01*
X16099Y-05216D01*
X15880Y-05436D01*
X12412Y-11705D02*
X12012Y-11705D01*
X12012Y-11800D01*
X12031Y-11858D01*
X12069Y-11896D01*
X12107Y-11915D01*
X12183Y-11934D01*
X12240Y-11934D01*
X12317Y-11915D01*
X12355Y-11896D01*
X12393Y-11858D01*
X12412Y-11800D01*
X12412Y-11705D01*
X12412Y-12124D02*
X12412Y-12200D01*
X12393Y-12239D01*
X12374Y-12258D01*
X12317Y-12296D01*
X12240Y-12315D01*
X12088Y-12315D01*
X12050Y-12296D01*
X12031Y-12277D01*
X12012Y-12239D01*
X12012Y-12162D01*
X12031Y-12124D01*
X12050Y-12105D01*
X12088Y-12086D01*
X12183Y-12086D01*
X12221Y-12105D01*
X12240Y-12124D01*
X12260Y-12162D01*
X12260Y-12239D01*
X12240Y-12277D01*
X12221Y-12296D01*
X12183Y-12315D01*
X12462Y-07414D02*
X12062Y-07414D01*
X12062Y-07509D01*
X12081Y-07567D01*
X12119Y-07605D01*
X12157Y-07624D01*
X12233Y-07643D01*
X12290Y-07643D01*
X12367Y-07624D01*
X12405Y-07605D01*
X12443Y-07567D01*
X12462Y-07509D01*
X12462Y-07414D01*
X12462Y-08024D02*
X12462Y-07795D01*
X12462Y-07909D02*
X12062Y-07909D01*
X12119Y-07871D01*
X12157Y-07833D01*
X12176Y-07795D01*
X12462Y-08405D02*
X12462Y-08176D01*
X12462Y-08290D02*
X12062Y-08290D01*
X12119Y-08252D01*
X12157Y-08214D01*
X12176Y-08176D01*
X02462Y-07414D02*
X02062Y-07414D01*
X02062Y-07509D01*
X02081Y-07567D01*
X02119Y-07605D01*
X02157Y-07624D01*
X02233Y-07643D01*
X02290Y-07643D01*
X02367Y-07624D01*
X02405Y-07605D01*
X02443Y-07567D01*
X02462Y-07509D01*
X02462Y-07414D01*
X02462Y-08024D02*
X02462Y-07795D01*
X02462Y-07909D02*
X02062Y-07909D01*
X02119Y-07871D01*
X02157Y-07833D01*
X02176Y-07795D01*
X02462Y-08405D02*
X02462Y-08176D01*
X02462Y-08290D02*
X02062Y-08290D01*
X02119Y-08252D01*
X02157Y-08214D01*
X02176Y-08176D01*
X02412Y-11705D02*
X02012Y-11705D01*
X02012Y-11800D01*
X02031Y-11858D01*
X02069Y-11896D01*
X02107Y-11915D01*
X02183Y-11934D01*
X02240Y-11934D01*
X02317Y-11915D01*
X02355Y-11896D01*
X02393Y-11858D01*
X02412Y-11800D01*
X02412Y-11705D01*
X02412Y-12124D02*
X02412Y-12200D01*
X02393Y-12239D01*
X02374Y-12258D01*
X02317Y-12296D01*
X02240Y-12315D01*
X02088Y-12315D01*
X02050Y-12296D01*
X02031Y-12277D01*
X02012Y-12239D01*
X02012Y-12162D01*
X02031Y-12124D01*
X02050Y-12105D01*
X02088Y-12086D01*
X02183Y-12086D01*
X02221Y-12105D01*
X02240Y-12124D01*
X02260Y-12162D01*
X02260Y-12239D01*
X02240Y-12277D01*
X02221Y-12296D01*
X02183Y-12315D01*
X06216Y-05099D02*
X06149Y-04796D01*
X06419Y-04897D02*
X06030Y-04508D01*
X05895Y-04643D01*
X05880Y-04695D01*
X05881Y-04730D01*
X05901Y-04784D01*
X05957Y-04839D01*
X06011Y-04859D01*
X06047Y-04861D01*
X06098Y-04847D01*
X06233Y-04712D01*
X05730Y-04881D02*
X05695Y-04880D01*
X05642Y-04895D01*
X05558Y-04979D01*
X05543Y-05031D01*
X05545Y-05066D01*
X05564Y-05120D01*
X05602Y-05158D01*
X05674Y-05196D01*
X06099Y-05216D01*
X05880Y-05436D01*
X06466Y-06349D02*
X06399Y-06046D01*
X06669Y-06147D02*
X06280Y-05758D01*
X06145Y-05893D01*
X06130Y-05945D01*
X06131Y-05980D01*
X06151Y-06034D01*
X06207Y-06089D01*
X06261Y-06109D01*
X06297Y-06111D01*
X06348Y-06097D01*
X06483Y-05962D01*
X05904Y-06392D02*
X06164Y-06652D01*
X05840Y-06159D02*
X06202Y-06353D01*
X05983Y-06572D01*
X06101Y-10616D02*
X06404Y-10549D01*
X06303Y-10819D02*
X06692Y-10430D01*
X06557Y-10295D01*
X06505Y-10280D01*
X06470Y-10281D01*
X06416Y-10301D01*
X06361Y-10357D01*
X06341Y-10411D01*
X06339Y-10447D01*
X06353Y-10498D01*
X06488Y-10633D01*
X06187Y-09925D02*
X06254Y-09992D01*
X06270Y-10044D01*
X06268Y-10079D01*
X06246Y-10169D01*
X06189Y-10259D01*
X06041Y-10408D01*
X05987Y-10428D01*
X05952Y-10429D01*
X05899Y-10415D01*
X05832Y-10347D01*
X05817Y-10295D01*
X05819Y-10259D01*
X05839Y-10206D01*
X05931Y-10113D01*
X05985Y-10093D01*
X06021Y-10091D01*
X06073Y-10106D01*
X06141Y-10174D01*
X06155Y-10225D01*
X06153Y-10261D01*
X06134Y-10315D01*
X05823Y-14817D02*
X05561Y-14650D01*
X05823Y-14531D02*
X05273Y-14531D01*
X05273Y-14722D01*
X05299Y-14769D01*
X05325Y-14793D01*
X05377Y-14817D01*
X05456Y-14817D01*
X05508Y-14793D01*
X05535Y-14769D01*
X05561Y-14722D01*
X05561Y-14531D01*
X05823Y-15055D02*
X05823Y-15150D01*
X05796Y-15198D01*
X05770Y-15222D01*
X05692Y-15269D01*
X05587Y-15293D01*
X05377Y-15293D01*
X05325Y-15269D01*
X05299Y-15245D01*
X05273Y-15198D01*
X05273Y-15102D01*
X05299Y-15055D01*
X05325Y-15031D01*
X05377Y-15007D01*
X05508Y-15007D01*
X05561Y-15031D01*
X05587Y-15055D01*
X05613Y-15102D01*
X05613Y-15198D01*
X05587Y-15245D01*
X05561Y-15269D01*
X05508Y-15293D01*
X03071Y-15973D02*
X03238Y-15711D01*
X03357Y-15973D02*
X03357Y-15423D01*
X03166Y-15423D01*
X03119Y-15449D01*
X03095Y-15475D01*
X03071Y-15527D01*
X03071Y-15606D01*
X03095Y-15658D01*
X03119Y-15685D01*
X03166Y-15711D01*
X03357Y-15711D01*
X02595Y-15973D02*
X02881Y-15973D01*
X02738Y-15973D02*
X02738Y-15423D01*
X02786Y-15501D01*
X02833Y-15554D01*
X02881Y-15580D01*
X02286Y-15423D02*
X02238Y-15423D01*
X02190Y-15449D01*
X02167Y-15475D01*
X02143Y-15527D01*
X02119Y-15632D01*
X02119Y-15763D01*
X02143Y-15868D01*
X02167Y-15920D01*
X02190Y-15946D01*
X02238Y-15973D01*
X02286Y-15973D01*
X02333Y-15946D01*
X02357Y-15920D01*
X02381Y-15868D01*
X02405Y-15763D01*
X02405Y-15632D01*
X02381Y-15527D01*
X02357Y-15475D01*
X02333Y-15449D01*
X02286Y-15423D01*
X02821Y-03973D02*
X02988Y-03711D01*
X03107Y-03973D02*
X03107Y-03423D01*
X02916Y-03423D01*
X02869Y-03449D01*
X02845Y-03475D01*
X02821Y-03527D01*
X02821Y-03606D01*
X02845Y-03658D01*
X02869Y-03685D01*
X02916Y-03711D01*
X03107Y-03711D01*
X02345Y-03973D02*
X02631Y-03973D01*
X02488Y-03973D02*
X02488Y-03423D01*
X02536Y-03501D01*
X02583Y-03554D01*
X02631Y-03580D01*
X01869Y-03973D02*
X02155Y-03973D01*
X02012Y-03973D02*
X02012Y-03423D01*
X02060Y-03501D01*
X02107Y-03554D01*
X02155Y-03580D01*
M02*
